<?xml version="1.0" encoding="UTF-8"?>
<svg width="631px" height="1383px" viewBox="0 0 631 1383" version="1.1" xmlns="http://www.w3.org/2000/svg" xmlns:xlink="http://www.w3.org/1999/xlink">
    <!-- Generator: Sketch 52.2 (67145) - http://www.bohemiancoding.com/sketch -->
    <title>Group 80</title>
    <desc>Created with Sketch.</desc>
    <defs>
        <path d="M4.7566613,21.9021298 C8.7884405,13.0780582 12.5217738,7.37722777 15.9566613,4.79963838 C21.1089925,0.933254288 24.8194995,-0.37698863 33.4752773,0.0905063057 C42.1310551,0.558001241 36.3104398,1.11244726 45.9257719,1.11244726 C52.3359932,1.11244726 57.7787936,0.771800276 62.2541729,0.0905063057 C74.5432988,1.34989794 83.4769584,5.67300386 89.0551517,13.0598241 C97.7702496,32.8772047 98.7657723,46.8317892 90.2555599,61.8872152 C81.7453476,76.9426411 76.9578273,88.1777528 62.2541729,92.5038254 C47.5505185,96.829898 25.8669307,95.9397734 9.80377318,85.5575397 C-0.904998489,78.6360506 -2.58736911,57.4175806 4.7566613,21.9021298 Z" id="path-1"></path>
        <path d="M-3.62376795e-13,4.97379915e-14 L25.0525535,4.97379915e-14 C24.2671445,6.45096726 20.0917189,9.6764509 12.5262768,9.6764509 C4.96083463,9.6764509 0.785409038,6.45096726 -3.62376795e-13,4.97379915e-14 Z" id="path-3"></path>
        <path d="M26.9505687,97.1978453 C27.738752,78.8110401 18.9479919,68.4175136 11.5290062,64.7831759 C4.11002056,61.1488381 0.658783555,70.602645 0.0785464302,84.0530911 C-0.494982751,97.5148591 2.01714214,109.867079 9.43612781,113.501416 C16.8551135,117.135754 26.1858631,115.05252 26.9505687,97.1978453" id="path-5"></path>
        <filter x="-35.2%" y="-22.5%" width="185.2%" height="145.1%" filterUnits="objectBoundingBox" id="filter-6">
            <feOffset dx="2" dy="0" in="SourceAlpha" result="shadowOffsetOuter1"></feOffset>
            <feGaussianBlur stdDeviation="3.5" in="shadowOffsetOuter1" result="shadowBlurOuter1"></feGaussianBlur>
            <feColorMatrix values="0 0 0 0 0   0 0 0 0 0   0 0 0 0 0  0 0 0 0.264436141 0" type="matrix" in="shadowBlurOuter1"></feColorMatrix>
        </filter>
        <path d="M620.950569,162.197845 C621.738752,143.81104 612.947992,133.417514 605.529006,129.783176 C598.110021,126.148838 594.658784,135.602645 594.078546,149.053091 C593.505017,162.514859 596.017142,174.867079 603.436128,178.501416 C610.855113,182.135754 620.185863,180.05252 620.950569,162.197845" id="path-7"></path>
        <filter x="-35.2%" y="-22.5%" width="185.2%" height="145.1%" filterUnits="objectBoundingBox" id="filter-8">
            <feOffset dx="2" dy="0" in="SourceAlpha" result="shadowOffsetOuter1"></feOffset>
            <feGaussianBlur stdDeviation="3.5" in="shadowOffsetOuter1" result="shadowBlurOuter1"></feGaussianBlur>
            <feColorMatrix values="0 0 0 0 0   0 0 0 0 0   0 0 0 0 0  0 0 0 0.264436141 0" type="matrix" in="shadowBlurOuter1"></feColorMatrix>
        </filter>
    </defs>
    <g id="neujahr" stroke="none" stroke-width="1" fill="none" fill-rule="evenodd">
        <g id="Group-80" transform="translate(5.000000, -11.000000)">
            <g id="Group-81" transform="translate(46.000000, 0.000000)">
                <g id="Group-73-Copy" transform="translate(139.000000, 61.000000)" fill="#BEDCE6">
                    <ellipse id="Oval" transform="translate(31.359477, 46.517175) rotate(41.000000) translate(-31.359477, -46.517175) " cx="31.3594771" cy="46.5171753" rx="14.3969262" ry="15.9954799"></ellipse>
                    <ellipse id="Oval" transform="translate(19.902889, 25.107093) rotate(16.000000) translate(-19.902889, -25.107093) " cx="19.9028895" cy="25.1070928" rx="14.3994576" ry="21.9899164"></ellipse>
                </g>
                <path d="M15.8605864,176 C30.7606983,184.538191 42.8983511,198.70107 52.2735449,218.488639 C61.6487388,238.276208 70.4017808,265.048468 78.5326711,298.805419 L38.1038994,318.889407 L6.94896589,227 L9.9475983e-14,188.580845 L15.8605864,176 Z" id="Path-12-Copy" fill="#CD2D00" transform="translate(39.266336, 247.444703) scale(-1, 1) translate(-39.266336, -247.444703) "></path>
                <g id="Group-35" transform="translate(15.000000, 0.000000)">
                    <g id="Group-37">
                        <g id="Group-34" transform="translate(0.200000, 0.000000)">
                            <g id="Group-33" transform="translate(0.400000, 0.000000)">
                                <g id="Group-32" transform="translate(0.000000, 182.720238)">
                                    <path d="M7.4,182.593585 C11.3073456,156.601429 17.8047754,129.211971 26.8922897,100.425212 C35.9798039,71.6384536 47.0476862,43.3858081 60.0959365,15.6672759 L164.080639,6.3968254 L185.549224,95.952381 L185.549224,186.279762 L100.621176,201.313983 L26.8922897,207.359923 L7.4,182.593585 Z" id="Path-14" fill="#EE2C00"></path>
                                    <path d="M170.407517,0 C180.943353,11.9891294 189.476686,33.1178315 196.007517,63.3861062 C205.803763,108.788518 212.914733,185.077065 206.694717,191.703706 C200.474701,198.330347 116.133199,204.643475 71.9569629,198.223586 C42.5061391,193.94366 18.5204848,185.136479 -2.7000624e-13,171.802042 L25.4919838,88.2662254 C28.6374732,130.014597 42.4734786,151.283739 67,152.073652 C103.789782,153.258521 147.476082,155.216726 170.407517,140.159282 C193.338952,125.101839 173.788765,64.2664702 170.407517,43.2681552 C168.153351,29.2692785 163.890037,15.7294264 157.617573,2.64859906 L170.407517,0 Z" id="Path-13" fill="#DE2D01"></path>
                                </g>
                                <g id="Group-30" transform="translate(32.000000, 0.000000)">
                                    <g id="Group-31">
                                        <g id="Group-29">
                                            <path d="M150.460586,175.52381 C165.360698,184.062 177.498351,198.22488 186.873545,218.012449 C196.248739,237.800018 205.001781,264.572278 213.132671,298.329228 L172.703899,318.413216 L154.204914,221.231034 L134.6,188.104655 L150.460586,175.52381 Z" id="Path-12" fill="#CD2D00"></path>
                                            <g id="Group-28">
                                                <path d="M113.48032,139.931791 C123.158641,137.809986 132.111258,138.526261 140.33817,142.080615 C152.678539,147.412146 155.787345,154.849889 159.254916,161.421273 C162.722487,167.992657 164.107181,173.195564 128.973944,201.661714 C119.35339,209.456616 114.562478,237.639824 91.4,258.094259 C88.2544533,260.872044 83.7661078,266.206889 77.9349635,274.098792 C38.366105,231.008237 16.0542182,204.21218 10.9993029,193.710623 C3.41693007,177.958288 -12.7575515,171.043453 23.7769549,151.871287 C48.1332924,139.089843 78.0344143,135.110011 113.48032,139.931791 Z" id="Path-11" fill="#F5F1EE"></path>
                                                <g id="Group-27" transform="translate(28.000000, 0.000000)">
                                                    <g id="Group-26">
                                                        <path d="M14.6859133,89.806257 C13.3476156,86.0210766 13.4498848,81.5580999 15.3077863,77.3872547 C18.9019374,69.3186634 27.7052911,65.3987487 34.9706272,68.6318802 C42.2359632,71.8650117 45.2120466,81.0268682 41.6178955,89.0954595 C38.9021369,95.1921275 33.2122418,98.9201546 27.45899,98.9834426 C27.7938098,99.6829385 28.0872986,100.414582 28.3346996,101.175626 C31.0653456,109.575522 27.1474154,118.376257 19.5837577,120.83262 C12.0200999,123.288982 3.67491788,118.470796 0.94427191,110.070901 C-1.78637406,101.671005 2.13155609,92.8702696 9.69521383,90.4139073 C11.3437292,89.8785379 13.0293693,89.6887323 14.6859133,89.806257 Z" id="Combined-Shape" fill="#BEDCE6"></path>
                                                        <g id="Group-25" transform="translate(8.800000, 0.000000)">
                                                            <g id="Group-24">
                                                                <path d="M22.6305456,29.794564 C29.9957029,19.5681934 39.7825608,14.9041734 51.9911195,15.8025039 C70.3039574,17.1499998 86.5383198,24.0218755 88.0873507,29.9168967 C89.1200379,33.8469108 89.1107196,37.9645501 88.0593958,42.2698146 C92.7286005,44.9017862 94.2558841,48.3857849 92.6412465,52.7218109 C91.0266088,57.0578369 81.7659342,65.1110838 64.8592227,76.8815517 L22.6305456,29.794564 Z" id="Path-9" fill="#CD2D00" transform="translate(57.947058, 46.287622) rotate(-60.000000) translate(-57.947058, -46.287622) "></path>
                                                                <g id="Group-23" transform="translate(0.000000, 30.196429)">
                                                                    <g id="Group-22" transform="translate(9.200000, 27.184524)">
                                                                        <g id="Group-20">
                                                                            <path d="M0.266393603,51.1051011 C-0.215265104,46.2719885 -0.0437687406,42.3984837 0.780882694,39.4845867 C2.01785985,35.1137413 4.6000697,34.460187 6.50071825,32.2628068 C8.4013668,30.0654266 2.56401747,12.0308262 17.7041192,3.93493212 C27.7975203,-1.46233059 38.2561058,0.58447446 49.0798757,10.0753473 L43.1166763,30.3472783 L56.601957,60.1117976 L11.2381952,71.8017941 L0.266393603,51.1051011 Z" id="Path-7" fill="#FEB49C"></path>
                                                                            <path d="M16.2663936,50.1051011 C15.7847349,45.2719885 15.9562313,41.3984837 16.7808827,38.4845867 C18.0178598,34.1137413 20.6000697,33.460187 22.5007182,31.2628068 C24.4013668,29.0654266 18.5640175,11.0308262 33.7041192,2.93493212 C43.7975203,-2.46233059 54.2561058,-0.41552554 65.0798757,9.07534728 L66.8841966,20.0447902 L72.601957,59.1117976 L27.2381952,70.8017941 L16.2663936,50.1051011 Z" id="Path-7" fill="#FEB49C" transform="translate(44.300978, 35.400897) scale(-1, 1) translate(-44.300978, -35.400897) "></path>
                                                                            <g id="Group-19" transform="translate(10.000000, 24.000000)">
                                                                                <rect id="Rectangle-Copy-5" fill="#FC977D" opacity="0.5" x="2.4" y="0.799603175" width="52" height="10.3948413" rx="5.19742063"></rect>
                                                                                <g id="Group-17" transform="translate(4.000000, 0.599206)">
                                                                                    <g id="Group-16-Copy" transform="translate(4.000000, 2.398810)">
                                                                                        <ellipse id="Oval" fill="#481F0E" cx="3.2" cy="3.99801587" rx="3.2" ry="3.99801587"></ellipse>
                                                                                        <ellipse id="Oval" fill="#FFFFFF" cx="4" cy="5.79861111" rx="1.6" ry="1.99900794"></ellipse>
                                                                                    </g>
                                                                                    <path d="M12.5630375,3.99801587 C11.3378629,1.13254305 9.47418201,-0.148939638 6.97199497,0.153567816 C4.46980792,0.456075269 2.29601218,2.65241532 0.45060776,6.74258797 C2.93978117,4.07141325 5.1135769,2.6234871 6.97199497,2.39880952 C8.83041303,2.17413195 10.6940939,2.70720073 12.5630375,3.99801587 Z" id="Path-6" fill="#481F0E"></path>
                                                                                </g>
                                                                                <g id="Group-17-Copy" transform="translate(35.800000, 1.000000)">
                                                                                    <g id="Group-16" transform="translate(3.200000, 2.398810)">
                                                                                        <ellipse id="Oval" fill="#481F0E" cx="3.2" cy="3.99801587" rx="3.2" ry="3.99801587"></ellipse>
                                                                                        <ellipse id="Oval" fill="#FFFFFF" cx="4" cy="5.79861111" rx="1.6" ry="1.99900794"></ellipse>
                                                                                    </g>
                                                                                    <path d="M0.425237685,4.79761905 C1.82756663,1.58426827 3.86104777,0.207906022 6.52568108,0.668532288 C9.1903144,1.12915856 11.3430106,3.30512398 12.9837696,7.19642857 C10.6251484,4.35763839 8.47245224,2.76997738 6.52568108,2.43344555 C4.57890992,2.09691372 2.54542879,2.88497155 0.425237685,4.79761905 Z" id="Path-5" fill="#481F0E"></path>
                                                                                </g>
                                                                                <g id="Group-15" transform="translate(0.000000, 4.797619)">
                                                                                    <g id="Group-13">
                                                                                        <g id="Group-14">
                                                                                            <rect id="Rectangle" fill="#FE7565" x="0" y="6.3968254" width="52" height="10.3948413" rx="5.19742063"></rect>
                                                                                            <g id="Group-12" transform="translate(16.000000, 0.000000)">
                                                                                                <path d="M14.6778336,10.615295 C14.7284598,10.7144175 14.7757387,10.8155324 14.8195215,10.9184909 C15.4034354,10.585258 16.0794695,10.3948413 16.8,10.3948413 C19.009139,10.3948413 20.8,12.1848139 20.8,14.3928571 C20.8,16.6009003 19.009139,18.390873 16.8,18.390873 C15.3755036,18.390873 14.124924,17.6466158 13.4162661,16.5259237 C12.5920268,17.1922107 11.5426392,17.5912698 10.4,17.5912698 C9.35505362,17.5912698 8.38809486,17.2575307 7.6,16.6908788 C6.81190514,17.2575307 5.84494638,17.5912698 4.8,17.5912698 C2.1490332,17.5912698 0,15.4433026 0,12.7936508 C0,10.143999 2.1490332,7.99603175 4.8,7.99603175 C4.93993257,7.99603175 5.07846661,8.00201664 5.21535985,8.01374431 C5.87965507,7.48525995 6.3987047,6.86465795 6.77250874,6.15193831 C7.35000759,5.05084063 8.55936665,3.00019453 10.4005859,0 C11.1934999,1.12605205 12.1785591,2.54281128 13.3557635,4.2502777 C14.5329679,5.95774411 15.3403012,8.00496257 15.7777633,10.3919331 L14.6778336,10.615295 Z" id="Combined-Shape" fill="#F95043"></path>
                                                                                                <ellipse id="Oval" fill="#FD8880" cx="10.4" cy="10.5992063" rx="2.4" ry="1.59920635"></ellipse>
                                                                                                <ellipse id="Oval" fill="#4A4A4A" transform="translate(5.600000, 16.791667) rotate(32.000000) translate(-5.600000, -16.791667) " cx="5.6" cy="16.7916667" rx="2.3996657" ry="1.59942931"></ellipse>
                                                                                                <ellipse id="Oval" fill="#4A4A4A" transform="translate(13.283186, 17.020236) scale(-1, 1) rotate(32.000000) translate(-13.283186, -17.020236) " cx="13.2831863" cy="17.0202364" rx="2.3996657" ry="1.59942931"></ellipse>
                                                                                            </g>
                                                                                        </g>
                                                                                    </g>
                                                                                </g>
                                                                            </g>
                                                                        </g>
                                                                    </g>
                                                                    <path d="M20.8531958,39.9418573 C8.19614393,55.7856744 1.30134779,59.7865241 0.168807405,51.9444064 C-1.53000317,40.1812299 9.9836554,23.1255248 17.1688074,12.9045667 C24.3539594,2.68360863 36.3801608,1.75580124e-15 56.1688074,0 C85.9255069,0.514189756 94.8372708,19.7169495 97.9718605,26.8244862 C98.7733512,28.6418291 103.029078,35.4915771 110.739042,47.37373 C113.28894,55.5988039 111.14968,61.1501464 106.843529,68.8338768 C103.972761,73.9563636 99.7695166,73.3952679 94.2337943,67.1505895 C92.539934,68.8143004 89.2125381,66.4247628 84.2516066,59.9819766 C79.2906751,53.5391904 71.3486314,46.5926163 60.4254754,39.1422542 C51.5787492,38.1942181 44.2265266,37.7202 38.3688074,37.7202 C32.5110882,37.7202 26.672551,38.4607525 20.8531958,39.9418573 Z" id="Path-8" fill="#F5F1EE"></path>
                                                                </g>
                                                            </g>
                                                            <path d="M21.4598151,74.1731245 C25.429921,71.4187467 31.4633441,70.0006124 35.9984251,71.8057973 C40.5335062,73.6109822 39.9187801,79.0259845 38.6418566,81.0124205 C37.3649332,82.9988565 33.3436606,82.0840548 29.1831225,82.4079696 C25.0225844,82.7318844 22.2777568,83.4292315 20.7166627,82.4079696 C19.1555687,81.3867077 17.4897092,76.9275022 21.4598151,74.1731245 Z" id="Path-10" fill="#8FBED2"></path>
                                                            <path d="M54.6273947,75.2149465 C58.597337,72.4607586 64.6306542,71.0429277 69.1658038,72.8483563 C73.7009533,74.6537848 73.08651,80.0687847 71.8096959,82.0551657 C70.5328819,84.0415466 66.5115839,83.1265326 62.3510851,83.4502346 C58.1905862,83.7739366 55.4458094,84.4711459 53.8846712,83.449798 C52.3235329,82.4284501 50.6574524,77.9691345 54.6273947,75.2149465 Z" id="Path-10-Copy" fill="#8FBED2" transform="translate(62.452413, 78.013510) scale(-1, 1) rotate(-6.000000) translate(-62.452413, -78.013510) "></path>
                                                        </g>
                                                    </g>
                                                </g>
                                            </g>
                                        </g>
                                    </g>
                                </g>
                            </g>
                        </g>
                    </g>
                </g>
                <g id="Path-4-Copy" transform="translate(82.600000, 101.960317)">
                    <mask id="mask-2" fill="white">
                        <use xlink:href="#path-1"></use>
                    </mask>
                    <use id="Mask" fill="#DCEBF2" xlink:href="#path-1"></use>
                    <g id="Path-4-+-Path-4-Copy-2-Mask" mask="url(#mask-2)">
                        <g transform="translate(33.800000, 5.597222)" id="Group-72">
                            <g>
                                <mask id="mask-4" fill="white">
                                    <use xlink:href="#path-3"></use>
                                </mask>
                                <use id="Mask" fill="#F96B5A" xlink:href="#path-3"></use>
                                <path d="M-0.8,-3.99801587 L25.8525535,-3.99801587 C25.0169838,3.51908896 20.5748915,7.27764137 12.5262768,7.27764137 C4.47766203,7.27764137 0.0355697716,3.51908896 -0.8,-3.99801587 Z" id="Path-4" fill="#491C0D" mask="url(#mask-4)"></path>
                                <path d="M-3.62376795e-13,-7.99603175 L25.0525535,-7.99603175 C24.2671445,-0.478926915 20.0917189,3.2796255 12.5262768,3.2796255 C4.96083463,3.2796255 0.785409038,-0.478926915 -3.62376795e-13,-7.99603175 Z" id="Path-4-Copy-2" fill="#F6F1EF" mask="url(#mask-4)"></path>
                            </g>
                        </g>
                    </g>
                    <path d="M8.4,-1.18107095 C15.3303229,3.07691438 25.1584787,5.52852126 37.8844675,6.17374969 C50.6104563,6.81897811 64.9591038,5.59317467 80.9304102,2.49633937 L56.6119576,-12.7936508 L8.4,-1.18107095 Z" id="Path-3" fill="#BEDDE6" mask="url(#mask-2)"></path>
                    <path d="M4.70943198,23.4578126 C0.464647929,66.2684978 12.4395087,88.607665 40.6340144,90.4753141 C82.9257729,93.2767877 83.8701499,52.0943617 84.6284673,46.3145976 C85.1340123,42.4614216 87.4760172,33.0665537 91.654482,18.1299941 C96.2982223,22.9078545 99.4554548,30.7238261 101.12618,41.577909 C103.632267,57.8590334 109.540547,74.6290164 96.4265681,94.2051622 C87.6839152,107.255926 73.1336361,117.484653 52.7757308,124.891342 C28.6062907,121.074017 9.94705763,115.721566 -3.20196851,108.833988 C-16.3509946,101.946411 -13.7138612,73.487686 4.70943198,23.4578126 Z" fill="#BEDCE6" mask="url(#mask-2)"></path>
                </g>
            </g>
            <g id="Group-78" transform="translate(0.000000, 99.000000)">
                <g id="Group-77" transform="translate(12.000000, 0.000000)" fill="#FFFFFF">
                    <path d="M6,1295 L594,1295 C597.313708,1295 600,1292.31371 600,1289 L600,6 C600,2.6862915 597.313708,-6.08718376e-16 594,0 L6,0 C2.6862915,6.08718376e-16 -4.05812251e-16,2.6862915 0,6 L0,1289 C4.05812251e-16,1292.31371 2.6862915,1295 6,1295 Z" id="Fill-10"></path>
                </g>
                <g id="Fill-11">
                    <use fill="black" fill-opacity="1" filter="url(#filter-6)" xlink:href="#path-5"></use>
                    <use fill="#CD2D00" fill-rule="evenodd" xlink:href="#path-5"></use>
                </g>
            </g>
            <g id="Fill-11" transform="translate(607.500000, 154.500000) scale(-1, 1) translate(-607.500000, -154.500000) ">
                <use fill="black" fill-opacity="1" filter="url(#filter-8)" xlink:href="#path-7"></use>
                <use fill="#CD2D00" fill-rule="evenodd" xlink:href="#path-7"></use>
            </g>
        </g>
    </g>
</svg>