<?xml version="1.0" encoding="UTF-8"?>
<svg width="265px" height="133px" viewBox="0 0 265 133" version="1.1" xmlns="http://www.w3.org/2000/svg" xmlns:xlink="http://www.w3.org/1999/xlink">
    <!-- Generator: Sketch 52.2 (67145) - http://www.bohemiancoding.com/sketch -->
    <title>Group 85</title>
    <desc>Created with Sketch.</desc>
    <g id="neujahr" stroke="none" stroke-width="1" fill="none" fill-rule="evenodd">
        <g id="Group-85">
            <path d="M103.54847,95.5152836 C105.708992,95.5152836 107.727527,95.8892145 109.604134,96.6370876 C111.480741,97.3849606 113.080335,98.4132707 114.402962,99.7220485 C115.725589,101.030826 116.764286,102.609646 117.519084,104.458554 C118.273882,106.307463 118.651275,108.291374 118.651275,110.410348 C118.651275,113.249495 118.003821,115.80469 116.708892,118.076008 C115.413964,120.347326 113.617018,122.120036 111.318001,123.39419 C109.018984,124.668344 106.429166,125.305411 103.54847,125.305411 L93.0367511,125.305411 L93.0367511,95.5152836 L103.54847,95.5152836 Z M103.403051,120.755873 C106.408393,120.755873 108.866642,119.78296 110.777873,117.837105 C112.689104,115.89125 113.644706,113.415689 113.644706,110.410348 C113.644706,107.405006 112.689104,104.932907 110.777873,102.993977 C108.866642,101.055047 106.408393,100.085596 103.403051,100.085596 L97.93945,100.085596 L97.93945,120.755873 L103.403051,120.755873 Z M129.246091,120.693551 L142.105288,120.693551 L142.105288,125.305411 L124.343392,125.305411 L124.343392,95.5152836 L141.648257,95.5152836 L141.648257,100.10637 L129.246091,100.10637 L129.246091,107.875902 L140.547227,107.875902 L140.547227,112.363117 L129.246091,112.363117 L129.246091,120.693551 Z M167.449748,95.5152836 L167.470522,100.085596 L158.724606,100.085596 L158.724606,125.305411 L153.842682,125.305411 L153.842682,100.085596 L145.117539,100.085596 L145.117539,95.5152836 L167.449748,95.5152836 Z M189.865054,125.305411 L180.537461,112.238473 L177.047405,112.238473 L177.047405,125.305411 L172.144706,125.305411 L172.144706,95.5152836 L177.047405,95.5152836 L177.047405,107.688934 L180.516687,107.688934 L188.992539,95.5152836 L194.996268,95.5152836 L184.83771,109.890994 L195.931105,125.305411 L189.865054,125.305411 Z M219.925245,125.305411 L217.370025,118.823877 L204.074571,118.823877 L201.540125,125.305411 L196.346588,125.305411 L208.312497,95.5152836 L212.924358,95.5152836 L225.243427,125.305411 L219.925245,125.305411 Z M210.68075,101.892947 L205.778051,114.440532 L215.666545,114.440532 L210.68075,101.892947 Z M265.067468,125.305411 L260.081673,125.305411 L256.633164,103.721072 L246.952412,124.84838 L245.705963,124.84838 L236.004436,103.741846 L232.514379,125.305411 L227.528584,125.305411 L232.410508,95.5152836 L237.209336,95.5152836 L246.287639,115.770078 L255.40749,95.5152836 L260.289414,95.5152836 L265.067468,125.305411 Z" id="DETKAM" fill="#373C3F" transform="translate(179.052110, 110.410348) rotate(2.000000) translate(-179.052110, -110.410348) "></path>
            <g id="Group-87">
                <path d="M80.658,26.9869091 C80.2030909,18.6365455 79.3210909,9.15218182 74.6525455,4.41163636 C71.5696364,1.28127273 67.5850909,1.09309091 63.846,1.01454545 C49.9303636,0.724909091 36.0163636,0.435272727 22.1007273,0.144 C17.6007273,0.0490909091 12.8225455,0.0638181818 8.99509091,3.564 C5.16436364,7.06581818 3.26127273,7.60909091 2.56581818,14.1889091 C1.00963636,28.8850909 2.01109091,83.7949091 0.607090909,96.8841818 C-0.798545455,109.973455 1.35818182,126.134182 9.64636364,131.151273 C12.9829091,133.170545 16.7154545,132.959455 20.3154545,132.717273 C36.9310909,131.596364 53.5434545,130.473818 70.1607273,129.354545 C73.6003636,129.122182 77.256,128.786727 80.0656364,125.838 C85.1629091,120.493636 85.1792727,109.513636 84.6752727,100.300909 C83.3367273,75.8618182 81.9981818,51.4243636 80.658,26.9869091" id="Fill-250" fill="#F4593D"></path>
                <path d="M37.4514545,121.267636 C37.1912727,121.267636 36.9327273,121.266 36.6758182,121.261091 C26.7234545,121.110545 16.7710909,120.96 6.82036364,120.807818 C5.382,120.786545 3.88472727,120.726 2.41527273,120.495273 C0.194727273,113.529273 -0.229090909,104.663455 0.607090909,96.8841818 C1.55781818,88.0265455 1.40563636,60.0218182 1.69036364,38.2843636 C2.96672727,38.1027273 4.266,38.0618182 5.52436364,38.0618182 C5.65527273,38.0618182 5.78454545,38.0618182 5.91545455,38.0634545 C8.57945455,38.0781818 11.5134545,38.0847273 14.6045455,38.0847273 C18.8852727,38.0847273 23.4654545,38.0732727 28.0456364,38.0618182 C32.598,38.0503636 37.1503636,38.0405455 41.4032727,38.0405455 C44.4763636,38.0405455 47.3923636,38.0454545 50.0416364,38.0618182 C62.2374545,38.1354545 53.0705455,79.344 54.3370909,97.2949091 C54.6970909,102.375818 55.0112727,107.818364 53.3667273,112.313455 C50.5178182,120.094364 43.5207273,121.267636 37.4514545,121.267636" id="Fill-262" fill-opacity="0.3" fill="#FFFFFF"></path>
                <path d="M153.216,6.04472727 C150.381818,1.26 145.516909,0.929454545 141.218182,0.954 C134.856,0.993272727 126.950727,0.973636364 119.053636,0.954 C111.223636,0.934363636 103.400182,0.914727273 97.092,0.954 C84.8961818,1.02763636 94.0614545,42.2378182 92.7949091,60.1854545 C92.4365455,65.2696364 92.1223636,70.7105455 93.7669091,75.204 C96.7369091,83.322 104.221636,84.2481818 110.457818,84.1532727 C120.408545,84.0027273 130.360909,83.8521818 140.313273,83.7 C144.911455,83.6312727 150.12,83.1649091 153.101455,77.9792727 C155.556,73.7116364 155.683636,67.5883636 155.688545,61.9838182 C155.7,48.4314545 155.711455,34.8774545 155.721273,21.3250909 C155.726182,15.9610909 155.605091,10.0767273 153.216,6.04472727" id="Fill-252" fill="#51CBCE"></path>
                <path d="M127.911273,62.2898182 C127.651091,62.2898182 127.394182,62.2881818 127.138909,62.2849091 C117.186545,62.1327273 107.235818,61.9821818 97.2834545,61.83 C95.7894545,61.8070909 94.2316364,61.7432727 92.7065455,61.488 C92.7343636,61.0527273 92.7654545,60.6174545 92.7949091,60.1854545 C94.0614545,42.2378182 84.8961818,1.02763636 97.092,0.954 C99.7576364,0.937636364 102.694909,0.931090909 105.789273,0.931090909 C110.014364,0.931090909 114.534,0.942545455 119.053636,0.954 C123.625636,0.965454545 128.199273,0.976909091 132.475091,0.976909091 C135.585818,0.976909091 138.539455,0.970363636 141.218182,0.954 C141.342545,0.954 141.466909,0.952363636 141.592909,0.952363636 C143.298,0.952363636 145.078364,1.026 146.776909,1.42363636 C146.202545,14.0989091 144.157091,29.2041818 144.800182,38.3170909 C145.160182,43.3996364 145.474364,48.8405455 143.829818,53.334 C140.980909,61.1181818 133.980545,62.2898182 127.911273,62.2898182" id="Fill-264" fill-opacity="0.3" fill="#FFFFFF"></path>
            </g>
        </g>
    </g>
</svg>