<?xml version="1.0" encoding="UTF-8"?>
<svg width="499px" height="312px" viewBox="0 0 499 312" version="1.1" xmlns="http://www.w3.org/2000/svg" xmlns:xlink="http://www.w3.org/1999/xlink">
    <!-- Generator: Sketch 52.2 (67145) - http://www.bohemiancoding.com/sketch -->
    <title>Group 86 Copy</title>
    <desc>Created with Sketch.</desc>
    <defs>
        <polygon id="path-1" points="0.093598326 0.0296512929 206.50135 0.0296512929 206.50135 25.2811037 0.093598326 25.2811037"></polygon>
        <path d="M26.2420988,14.4708486 C28.9033471,8.64073964 31.3676009,4.87417193 33.6348601,3.1711455 C37.0357489,0.616605857 39.4849358,-0.249078306 45.1983374,0.0597979768 C50.9117391,0.36867426 47.0697374,0.734999567 53.4165101,0.734999567 C57.6476919,0.734999567 61.2403101,0.509932371 64.1943647,0.0597979768 C72.3060231,0.89188444 78.2028457,3.74818252 81.8848324,8.62869222 C87.6373894,21.7221364 88.2945021,30.9420015 82.6771834,40.889198 C77.0598648,50.8363946 65.8900185,59.4875885 50.9117391,60.9717409 C35.9334597,62.4558934 26.4595774,61.8229178 15.8568016,54.9633232 C5.25402584,48.1037286 -0.281138087,39.6558368 0.0109959382,31.29461 C0.303129964,22.9333833 6.80794972,12.2151183 14.0197483,11.1683609 C18.8276141,10.4705227 22.9017309,11.5713519 26.2420988,14.4708486 Z" id="path-3"></path>
        <path d="M0,0 L16.5363882,0 C16.0179649,4.2621869 13.2619002,6.39328035 8.2681941,6.39328035 C3.27448805,6.39328035 0.518423351,4.2621869 0,0 Z" id="path-5"></path>
    </defs>
    <g id="neujahr" stroke="none" stroke-width="1" fill="none" fill-rule="evenodd">
        <g id="Group-86-Copy" transform="translate(0.000000, 0.093252)">
            <g id="Group-44">
                <g id="Group-18" transform="translate(225.380249, 0.172285)">
                    <path d="M66.3303949,163.562322 L66.3303949,25.2800626 L272.738147,25.2800626 L272.738147,128.127623 C272.738147,133.421745 268.445474,137.713784 263.147357,137.713784 L95.7227004,137.713784 L66.3303949,163.562322 Z" id="Fill-1" fill="#E5EBF1"></path>
                    <g id="Group-5" transform="translate(66.237578, 0.000000)">
                        <mask id="mask-2" fill="white">
                            <use xlink:href="#path-1"></use>
                        </mask>
                        <g id="Clip-4"></g>
                        <path d="M197.598222,0.0286101676 L8.99672666,0.0286101676 C4.07890738,0.0286101676 0.093598326,4.01091435 0.093598326,8.92502565 L0.093598326,25.2811037 L206.50135,25.2811037 L206.50135,8.92502565 C206.50135,4.01091435 202.516041,0.0286101676 197.598222,0.0286101676" id="Fill-3" fill="#F4593D" mask="url(#mask-2)"></path>
                    </g>
                    <path d="M117.284004,13.2446544 C117.284004,16.3732359 119.823662,18.9109787 122.954604,18.9109787 C126.085546,18.9109787 128.622599,16.3732359 128.622599,13.2446544 C128.622599,10.116073 126.085546,7.58093292 122.954604,7.58093292 C119.823662,7.58093292 117.284004,10.116073 117.284004,13.2446544" id="Fill-6" fill="#FFFFFF"></path>
                    <path d="M99.2032037,13.2446544 C99.2032037,16.3732359 101.742861,18.9109787 104.873804,18.9109787 C108.004746,18.9109787 110.544403,16.3732359 110.544403,13.2446544 C110.544403,10.116073 108.004746,7.58093292 104.873804,7.58093292 C101.742861,7.58093292 99.2032037,10.116073 99.2032037,13.2446544" id="Fill-8" fill="#FFFFFF"></path>
                    <path d="M81.1224035,13.2446544 C81.1224035,16.3732359 83.6620612,18.9109787 86.7930034,18.9109787 C89.9239455,18.9109787 92.4636032,16.3732359 92.4636032,13.2446544 C92.4636032,10.116073 89.9239455,7.58093292 86.7930034,7.58093292 C83.6620612,7.58093292 81.1224035,10.116073 81.1224035,13.2446544" id="Fill-10" fill="#FFFFFF"></path>
                    <path d="M57.9667159,278.980689 C60.514188,278.980689 63.0903126,278.303958 65.4163786,276.880219 C72.167961,272.762568 74.3012735,263.954649 70.1779113,257.208157 L27.329327,187.085767 C23.2007552,180.334069 14.388794,178.212776 7.64242119,182.327824 C0.888234009,186.445475 -1.24247371,195.255997 2.88088854,202.002489 L45.7268681,272.122276 C48.428022,276.541853 53.1400639,278.980689 57.9667159,278.980689" id="Fill-12" fill="#CD2D00"></path>
                </g>
                <path d="M182.690561,176.708069 C167.572435,176.708069 160.776571,191.299439 161.292317,200.544632 L172.774175,294.737838 C173.271687,299.141798 177.019961,302.460385 181.455897,302.431754 L242.530107,301.994481 C247.062419,301.960645 274.541618,292.82868 274.856796,288.307593 L257.421618,203.222926 C258.419248,188.886631 247.049395,176.708069 232.668421,176.708069 L182.690561,176.708069 Z" id="Fill-24" fill="#EE2C00"></path>
                <path d="M29.65402,311.337854 L469.822289,311.337854 C472.953231,311.337854 475.495493,309.605897 475.495493,307.468927 C475.495493,305.331958 472.953231,303.6 469.822289,303.6 L29.65402,303.6 C26.5204731,303.6 23.9808153,305.331958 23.9808153,307.468927 C23.9808153,309.605897 26.5204731,311.337854 29.65402,311.337854" id="Fill-30" fill="#8B572A"></path>
                <path d="M235.881153,278.410912 C232.40117,271.297423 223.810615,268.348436 216.689155,271.823192 C214.350065,272.963224 212.47723,274.662861 211.117536,276.66963 L189.729711,277.505133 L182.191486,291.680053 L212.274057,294.225605 C216.44691,298.915874 223.370408,300.477562 229.288462,297.585836 C236.407318,294.111081 239.35853,285.5244 235.881153,278.410912" id="Fill-32" fill="#CE2E00"></path>
                <polygon id="Fill-34" fill="#CFD1D3" points="196.296875 303.125453 260.910977 303.125453 260.910977 294.838096 196.296875 294.838096"></polygon>
                <path d="M251.237616,303.125713 L348.638049,303.125713 C354.248739,303.125713 359.171768,299.388073 360.677329,293.987236 L379.668759,225.803942 C381.346236,219.775826 376.811319,213.810179 370.549434,213.810179 L281.090968,213.810179 C277.342693,213.810179 274.071093,216.329702 273.117745,219.950215 L251.237616,303.125713 Z" id="Fill-36" fill="#E2E4E9"></path>
                <g id="snowflake" transform="translate(319.000000, 263.500000) rotate(16.000000) translate(-319.000000, -263.500000) translate(311.000000, 254.000000)">
                    <path d="M16,9.5 C16,14.7467728 12.418335,19 8,19 C3.58166503,19 0,14.7467728 0,9.5 C0,4.25322722 3.58166503,0 8,0 C12.418335,0 16,4.25322722 16,9.5 Z" id="Path" fill="#83C6E7"></path>
                    <path d="M16,9.36968398 C16,9.14985132 15.9931985,8.93192897 15.9809558,8.71577002 L12.997562,5.1309989 L12.2208285,4.24770071 L11.8373465,5.17567078 L10.2268704,3.2619805 L9.86131966,3.69635572 L8.43374259,2 L8.02490947,7.97456951 L4.60992845,3.91677616 L3.94807879,6.49995679 L2.27861496,8.71503526 L4.30336541,11.1211448 L2,11.2598627 L3.32530695,12.8345464 L2.7935518,13.6083691 L7.30963696,18.9747251 C7.5031711,18.9911832 7.6985602,19 7.89555692,19 C12.371575,19 16,14.6884292 16,9.36968398 Z" id="Path" fill="#4FA9E1"></path>
                    <path d="M14,11.4234527 L13.7164492,10.1662247 L11.2236439,10.9600116 L10.1825733,10.2457828 C10.2399631,10.0087534 10.2714268,9.75871349 10.2714268,9.5 C10.2714268,9.24128651 10.2399631,8.99139617 10.1825733,8.75421717 L11.2235181,8.040138 L13.7165751,8.83377531 L14,7.57654728 L12.5652557,7.11968616 L13.7401099,6.31363654 L13.19239,5.18636346 L12.0175358,5.99241305 L12.4020221,4.28744616 L11.3438352,3.95066996 L10.675924,6.91286489 L9.63372068,7.62769182 C9.3421152,7.26863336 8.96807484,7.00498485 8.54771993,6.8808622 L8.54771993,5.45285332 L10.3727399,3.28444528 L9.59810378,2.36399344 L8.54771993,3.61209922 L8.54771993,2 L7.45228007,2 L7.45228007,3.61194968 L6.40189622,2.36399344 L5.62738599,3.28429574 L7.45228007,5.45285332 L7.45228007,6.8808622 C7.032051,7.00483531 6.65801064,7.2687829 6.36640516,7.62769182 L5.32420187,6.91286489 L4.65616478,3.95066996 L3.59810378,4.28744616 L3.98259009,5.99241305 L2.80761001,5.18636346 L2.25989008,6.31363654 L3.43474431,7.11968616 L2,7.57654728 L2.28355078,8.83377531 L4.77635606,8.03998843 L5.81730082,8.75406763 C5.7597852,8.99109706 5.72857322,9.24128651 5.72857322,9.5 C5.72857322,9.75871349 5.7600369,10.0087534 5.81742667,10.2457828 L4.77648194,10.9600116 L2.2834249,10.1662247 L2,11.4234527 L3.43474431,11.8803138 L2.25989008,12.6863635 L2.80761001,13.8136365 L3.98259009,13.0075869 L3.59810378,14.7125538 L4.65616478,15.0494796 L5.32420187,12.0872846 L6.36627932,11.3723082 C6.6578848,11.7313666 7.032051,11.9950152 7.45228007,12.1191378 L7.45228007,13.5471467 L5.62738599,15.7157043 L6.40189622,16.6360066 L7.45228007,15.3880503 L7.45228007,17 L8.54771993,17 L8.54771993,15.3880503 L9.59810378,16.6360066 L10.3727399,15.7157043 L8.54771993,13.5471467 L8.54771993,12.1188387 C8.96782312,11.994417 9.3421152,11.7313666 9.63372068,11.3723082 L10.6757981,12.0871351 L11.3438352,15.04933 L12.4018962,14.7124043 L12.0174099,13.0075869 L13.19239,13.8136365 L13.7401099,12.6863635 L12.5652557,11.8803138 L14,11.4234527 Z M8,10.897352 C7.35159626,10.897352 6.82401309,10.2704578 6.82401309,9.5 C6.82401309,8.72954219 7.35159626,8.10264795 8,8.10264795 C8.64840374,8.10264795 9.17598691,8.72954219 9.17598691,9.5 C9.17598691,10.2704578 8.64840374,10.897352 8,10.897352 Z" id="Shape" fill="#CDEFFE" fill-rule="nonzero"></path>
                    <path d="M14,11.4234527 L13.7168827,10.1662247 L11.2278887,10.9600116 L10.1884098,10.2457828 C10.2457118,10.0087534 10.2771274,9.75871349 10.2771274,9.5 C10.2771274,9.24128651 10.2457118,8.99139617 10.1884098,8.75421717 L11.227763,8.040138 L13.7170084,8.83377531 L14,7.57654728 L12.5674493,7.11968616 L13.7405073,6.31363654 L13.1936247,5.18636346 L12.0205667,5.99241305 L12.4044652,4.28744616 L11.3478962,3.95066996 L10.6810062,6.91286489 L9.64039625,7.62769182 C9.3492366,7.26863336 8.97576811,7.00498485 8.55605587,6.8808622 L8.55605587,5.45285332 L10.3782855,3.28444528 L9.60483379,2.36399344 L8.55605587,3.61209922 L8.55605587,2 L8,2 L8,8.10294702 C8.0030159,8.10294702 8.00603179,8.10264795 8.00917334,8.10264795 C8.65658575,8.10264795 9.1833623,8.72954219 9.1833623,9.5 C9.1833623,10.2704578 8.65658575,10.897352 8.00917334,10.897352 C8.00603179,10.897352 8.0030159,10.897053 8,10.897053 L8,17 L8.55605587,17 L8.55605587,15.3880503 L9.60483379,16.6360066 L10.3782855,15.7157043 L8.55605587,13.5471467 L8.55605587,12.1188387 C8.97551677,11.994417 9.3492366,11.7313666 9.64039625,11.3723082 L10.6808805,12.0871351 L11.3478962,15.04933 L12.4043395,14.7124043 L12.0204411,13.0075869 L13.1936247,13.8136365 L13.7405073,12.6863635 L12.5674493,11.8803138 L14,11.4234527 Z" id="Path" fill="#94DEF7"></path>
                </g>
                <path d="M197.564881,299.525713 L137.780035,299.22639 C134.2167,299.184745 130.671598,298.036904 128.02254,295.65533 C123.391246,291.496034 122.088858,285.033249 124.409714,279.572547 L163.296432,189.647954 C166.25025,182.859817 174.054162,179.627124 180.946402,182.334049 C188.15903,185.163307 191.61036,193.377786 188.586214,200.501685 L158.688582,271.194092 L197.872244,271.631364 L197.564881,299.525713 Z" id="Fill-38" fill="#EE2C00"></path>
                <path d="M215.495276,39.4744711 L158.614757,39.4744711 C154.452323,39.4744711 151.079137,36.1012252 151.079137,31.9419297 L151.079137,9.93254137 C151.079137,5.7732459 154.452323,2.4 158.614757,2.4 L215.495276,2.4 C219.660315,2.4 223.036106,5.7732459 223.036106,9.93254137 L223.036106,31.9419297 C223.036106,36.1012252 219.660315,39.4744711 215.495276,39.4744711" id="Fill-39" fill="#E5EBF1"></path>
                <polygon id="Fill-40" fill="#E5EBF1" points="165.467626 34.8 165.467626 48.5402508 181.14057 34.8"></polygon>
                <g id="Group-11" transform="translate(0.000000, 2.400000)">
                    <path d="M118.378613,163.467927 L118.378613,25.5969121 L0.830229307,25.5969121 L0.830229307,128.139943 C0.830229307,133.415846 5.11248296,137.697473 10.3923663,137.697473 L89.07487,137.697473 L118.378613,163.467927 Z" id="Fill-41" fill="#E5EBF1"></path>
                    <path d="M9.70548653,0.422242597 L109.502314,0.422242597 C114.4019,0.422242597 118.379394,4.39153271 118.379394,9.29262995 L118.379394,25.5966518 L0.828405963,25.5966518 L0.828405963,9.29262995 C0.828405963,4.39153271 4.80329591,0.422242597 9.70548653,0.422242597" id="Fill-42" fill="#6BD097"></path>
                    <path d="M31.6832938,13.5989844 C31.6832938,16.7171546 29.1540552,19.247089 26.0309274,19.247089 C22.9104043,19.247089 20.3785609,16.7171546 20.3785609,13.5989844 C20.3785609,10.4782114 22.9104043,7.95087975 26.0309274,7.95087975 C29.1540552,7.95087975 31.6832938,10.4782114 31.6832938,13.5989844" id="Fill-43" fill="#FFFFFF"></path>
                    <path d="M49.7106961,13.5989844 C49.7106961,16.7171546 47.1788527,19.247089 44.0583296,19.247089 C40.9378066,19.247089 38.4059632,16.7171546 38.4059632,13.5989844 C38.4059632,10.4782114 40.9378066,7.95087975 44.0583296,7.95087975 C47.1788527,7.95087975 49.7106961,10.4782114 49.7106961,13.5989844" id="Fill-44" fill="#FFFFFF"></path>
                    <path d="M67.7380983,13.5989844 C67.7380983,16.7171546 65.2062549,19.247089 62.0857319,19.247089 C58.9626041,19.247089 56.4307607,16.7171546 56.4307607,13.5989844 C56.4307607,10.4782114 58.9626041,7.95087975 62.0857319,7.95087975 C65.2062549,7.95087975 67.7380983,10.4782114 67.7380983,13.5989844" id="Fill-45" fill="#FFFFFF"></path>
                    <path d="M96.5280757,76.4480069 C96.5280757,99.4532 77.8706609,118.099274 54.8620238,118.099274 C31.8468632,118.099274 13.1894484,99.4532 13.1894484,76.4480069 C13.1894484,53.4460742 31.8468632,34.8 54.8620238,34.8 C77.8706609,34.8 96.5280757,53.4460742 96.5280757,76.4480069" id="Fill-46" fill="#F8FCFF"></path>
                    <g id="002-gift-box" transform="translate(31.175060, 49.200000)">
                        <path d="M19.4999889,22.0110176 L2.66357353,22.0110176 L2.66357353,49.0879407 C2.66357353,51.0816907 4.25064106,52.6981971 6.20808203,52.6981971 L21.2722432,52.6981971 L21.2722432,22.0110176 L19.4999889,22.0110176 Z" id="Path" fill="#FFCD00"></path>
                        <path d="M45.1976756,49.0879407 L45.1976756,22.0110176 L26.5890059,22.0110176 L26.5890059,52.6981971 L41.6531671,52.6981971 C43.6110407,52.6981971 45.1976756,51.0816907 45.1976756,49.0879407 Z" id="Path" fill="#FFD217"></path>
                        <path d="M24.3827744,12.9853766 C24.5489232,11.6791266 24.3935913,10.3517227 23.9306246,9.12215548 C23.1621862,6.63393427 21.8810229,4.34182692 20.1736705,2.39787657 C17.3997638,-0.417788462 13.1287868,-0.634615385 11.4010986,1.12556084 C9.67297755,2.8852965 9.8854231,7.23593753 12.6502435,10.0608573 C13.9365989,11.2723557 15.4094392,12.2604167 17.0099198,12.9853766 L24.3827744,12.9853766 Z M15.1580525,7.50653042 C14.1451504,6.52860583 13.6821836,5.09763625 13.9262146,3.69795676 C15.3008367,3.44895828 16.7057462,3.92051282 17.6658615,4.9522035 C19.0430796,6.58325315 20.0642027,8.49370991 20.6608674,10.5570914 C18.6350631,9.94935897 16.7589658,8.90973555 15.1580525,7.50653042 Z" id="Shape" fill="#BF243D" fill-rule="nonzero"></path>
                        <polygon id="Path" fill="#ED539D" points="19.4999889 12.9853766 0.00519215113 12.9853766 0.00519215113 22.0110176 19.4999889 22.0110176"></polygon>
                        <polygon id="Path" fill="#F17FB5" points="28.3612602 22.0110176 47.856057 22.0110176 47.856057 12.9853766 28.3612602 12.9853766"></polygon>
                        <path d="M24.3827744,12.9853766 L30.8513294,12.9853766 C32.4522426,12.2604167 33.9250828,11.2723557 35.2110056,10.0608573 C37.975826,7.23593753 38.1887042,2.8852965 36.4605833,1.12556084 C34.7324623,-0.634615385 30.4614853,-0.417788462 27.6880113,2.39787657 C25.9802262,4.34182692 24.6994956,6.63393427 23.9306246,9.12215548 C24.3935913,10.3517227 24.5489232,11.6791266 24.3827744,12.9853766 Z M30.1966857,4.9522035 C31.1576663,3.9209535 32.5625758,3.44895828 33.9376305,3.69487179 C34.1794982,5.09587343 33.7160987,6.52640222 32.7031966,7.50564907 C31.1031486,8.91237984 29.2261861,9.95420676 27.1977857,10.5610577 C27.793585,8.49503205 28.8160061,6.58281247 30.1966857,4.9522035 Z" id="Shape" fill="#DF2A47" fill-rule="nonzero"></path>
                        <polygon id="Path" fill="#FF3051" points="24.3827744 12.9853766 19.4999889 12.9853766 19.4999889 22.0110176 28.3612602 22.0110176 28.3612602 12.9853766"></polygon>
                        <polygon id="Path" fill="#E5B800" points="2.66357353 22.0110176 45.1976756 22.0110176 45.1976756 23.8161458 2.66357353 23.8161458"></polygon>
                        <polygon id="Path" fill="#FF4764" points="21.2722432 22.0110176 26.5890059 22.0110176 26.5890059 52.6981971 21.2722432 52.6981971"></polygon>
                    </g>
                </g>
                <g id="Group-21" transform="translate(86.010791, 283.800000) scale(-1, 1) translate(-86.010791, -283.800000) translate(60.510791, 262.800000)" fill="#F7981C">
                    <g id="Group-40">
                        <path d="M15.3672995,0.81094754 L49.5680236,0.81094754 C50.1723319,0.81094754 50.6646348,1.29767361 50.6646348,1.90412908 L50.6646348,27.8359569 C50.6646348,35.3815123 44.5408037,41.4981233 36.9921595,41.4981233 L27.9431636,41.4981233 C20.3945194,41.4981233 14.2706883,35.3815123 14.2706883,27.8359569 L14.2706883,1.90412908 C14.2706883,1.29767361 14.7629912,0.81094754 15.3672995,0.81094754" id="Fill-47"></path>
                        <path d="M19.4677397,37.0267506 C11.749785,32.6722441 -1.49290211,19.8221554 0.715948926,10.7773795 C1.30202379,8.35936608 2.78414199,6.53999965 4.99038825,5.51709407 C10.1061706,3.14072563 17.4281992,6.00902576 18.2460992,6.34478867 L15.8106326,11.4202744 C14.0419889,10.7045008 9.72587313,9.53063201 7.69154216,10.478056 C7.27998737,10.6680614 6.82675615,11.0012215 6.58711665,11.9954961 C5.30035673,17.26359 15.6621603,28.3723967 22.6064962,32.2896306 L19.4677397,37.0267506 Z" id="Fill-48"></path>
                    </g>
                </g>
                <path d="M174.13465,21.4250144 C174.13465,23.5280874 172.428521,25.2329301 170.323861,25.2329301 C168.219201,25.2329301 166.510467,23.5280874 166.510467,21.4250144 C166.510467,19.3219413 168.219201,17.6170987 170.323861,17.6170987 C172.428521,17.6170987 174.13465,19.3219413 174.13465,21.4250144" id="Fill-53" fill="#FFFFFF"></path>
                <path d="M189.961536,21.4250144 C189.961536,23.5280874 188.255407,25.2329301 186.150747,25.2329301 C184.046087,25.2329301 182.337353,23.5280874 182.337353,21.4250144 C182.337353,19.3219413 184.046087,17.6170987 186.150747,17.6170987 C188.255407,17.6170987 189.961536,19.3219413 189.961536,21.4250144" id="Fill-54" fill="#FFFFFF"></path>
                <path d="M205.788683,21.4250144 C205.788683,23.5280874 204.082554,25.2329301 201.977894,25.2329301 C199.873234,25.2329301 198.1645,23.5280874 198.1645,21.4250144 C198.1645,19.3219413 199.873234,17.6170987 201.977894,17.6170987 C204.082554,17.6170987 205.788683,19.3219413 205.788683,21.4250144" id="Fill-55" fill="#FFFFFF"></path>
                <path d="M201.529139,269.950954 C204.128952,271.268953 207.582314,273.33278 209.14844,275.780905 C210.714567,278.229029 210.402045,280.801675 203.154871,291.540335 C195.907697,302.278994 191.617122,302.532659 187.83966,303.058512 C184.062198,303.584365 180.490268,296.817899 179.235118,294.870158 C178.398352,293.571663 178.398686,292.607553 179.23612,291.977827 C179.798577,293.188545 181.310561,293.521492 183.772071,292.97667 C187.464336,292.159436 195.195775,282.676451 196.750171,280.582851 C197.786435,279.187118 198.630463,276.354891 199.282254,272.08617 C199.046969,269.784027 199.795931,269.072289 201.529139,269.950954 Z" id="Path-19" fill="#F6F6F4" transform="translate(194.261029, 286.337209) rotate(-30.000000) translate(-194.261029, -286.337209) "></path>
                <g id="Group-35-Copy" transform="translate(210.585132, 174.800000) scale(-1, 1) translate(-210.585132, -174.800000) translate(152.585132, 88.800000)">
                    <g id="Group-37">
                        <g id="Group-34" transform="translate(0.861562, 0.000000)">
                            <g id="Group-33">
                                <g id="Group-30">
                                    <g id="Group-31">
                                        <g id="Group-29">
                                            <g id="Group-28">
                                                <path d="M80.0053296,74.3805238 C86.980026,72.8673693 93.4317427,73.3781771 99.3604798,75.9129472 C108.253586,79.7151025 110.493951,85.0192929 112.992861,89.7056435 C115.491772,94.391994 116.489654,98.1024221 91.170833,118.402919 C84.2377662,123.961815 51.6945442,145.446105 35.0024693,160.033086 C32.7356263,162.01405 29.5010933,165.818568 25.2988703,171.446641 C26.5571857,160.691503 28.1065221,152.525114 29.9468794,146.947474 C24.9429468,144.560667 11.6164773,123.966338 6.15222875,112.732637 C2.50939641,105.243502 0.491739605,96.20852 0.0992583417,85.6276894 L80.0053296,74.3805238 Z" id="Path-11" fill="#F5F1EE"></path>
                                                <g id="Group-27" transform="translate(1.199041, 0.000000)">
                                                    <g id="Group-26" transform="translate(23.762447, 0.000000)">
                                                        <path d="M9.69370102,47.4427595 C8.81033359,44.9418715 8.87783817,41.9931601 10.1041795,39.2374614 C12.4765635,33.9065021 18.2873753,31.3165945 23.082991,33.4527409 C27.8786066,35.5888873 29.8430239,41.6421726 27.4706399,46.9731319 C25.6780546,51.0012315 21.9223371,53.4643579 18.1247999,53.5061727 C18.3458037,53.9683331 18.5395262,54.4517336 18.7028277,54.9545594 C20.5052396,60.5044131 17.9191394,66.3191041 12.9266112,67.9420352 C7.93408297,69.5649663 2.4256956,66.3815665 0.623283645,60.8317128 C-1.17912831,55.2818591 1.4069719,49.4671682 6.39950014,47.8442371 C7.4876323,47.4905158 8.60026939,47.3651103 9.69370102,47.4427595 Z" id="Combined-Shape" fill="#BEDCE6"></path>
                                                        <g id="Group-25" transform="translate(5.808598, 0.000000)">
                                                            <g id="Group-24">
                                                                <path d="M23.2343926,8.67978549 C32.1430648,2.1088607 40.6266402,-0.731235776 48.6851188,0.159496055 C60.7728366,1.4955938 71.0556989,8.67680934 72.0781646,14.521966 C72.7598084,18.4187371 70.8743805,20.5945854 66.4218811,21.0495111 C69.5038736,23.6592194 70.5119845,27.1137479 69.4462139,31.4130965 C68.3804434,35.7124452 65.5119481,39.7627596 60.840728,43.5640399 L23.2343926,8.67978549 Z" id="Path-9" fill="#CD2D00"></path>
                                                                <g id="Group-23" transform="translate(0.000000, 4.754717)">
                                                                    <g id="Group-22" transform="translate(4.752489, 20.603774)">
                                                                        <g id="Group-20">
                                                                            <path d="M0.175837886,33.1046953 C-0.142089601,29.9114332 -0.0288903439,27.3521889 0.515435656,25.4269623 C1.33192466,22.5391225 3.03635868,22.1073159 4.29091591,20.6554956 C5.54547314,19.2036753 1.69242581,7.288123 11.685922,1.93912459 C18.3482529,-1.62687435 25.2516302,-0.274539839 32.396054,5.99612813 L51.522126,14.7434956 L37.361139,39.0554655 L7.41797273,46.7791057 L0.175837886,33.1046953 Z" id="Path-7" fill="#FEB49C"></path>
                                                                            <g id="Group-19" transform="translate(2.112218, 13.735849)">
                                                                                <rect id="Rectangle-Copy-5" fill="#FC977D" opacity="0.5" x="1.58416313" y="0.528301887" width="34.3235345" height="6.86792453" rx="3.432"></rect>
                                                                                <g id="Group-17" transform="translate(2.640272, 1.056604)">
                                                                                    <g id="Group-16-Copy" transform="translate(2.640272, 1.584906)">
                                                                                        <ellipse id="Oval" fill="#481F0E" cx="2.11221751" cy="2.64150943" rx="2.11221751" ry="2.64150943"></ellipse>
                                                                                        <ellipse id="Oval" fill="#FFFFFF" cx="1.05610876" cy="3.32075472" rx="1.05610876" ry="1.32075472"></ellipse>
                                                                                    </g>
                                                                                    <path d="M8.2924587,2.64150943 C7.48376015,0.748276955 6.25360411,-0.0984051767 4.60199058,0.101463037 C2.95037705,0.301331251 1.51552411,1.7524643 0.297431751,4.45486219 C1.94045539,2.69000345 3.37530834,1.73335128 4.60199058,1.58490566 C5.82867282,1.43646004 7.05882886,1.7886613 8.2924587,2.64150943 Z" id="Path-6" fill="#481F0E"></path>
                                                                                </g>
                                                                                <g id="Group-17-Copy" transform="translate(24.290501, 0.000000)">
                                                                                    <g id="Group-16" transform="translate(2.112218, 1.584906)">
                                                                                        <ellipse id="Oval" fill="#481F0E" cx="2.11221751" cy="2.64150943" rx="2.11221751" ry="2.64150943"></ellipse>
                                                                                        <ellipse id="Oval" fill="#FFFFFF" cx="1.05610876" cy="3.32075472" rx="1.05610876" ry="1.32075472"></ellipse>
                                                                                    </g>
                                                                                    <path d="M0.280685776,3.16981132 C1.2063182,1.04673411 2.54855397,0.137364567 4.30739308,0.441702685 C6.06623219,0.746040804 7.48715798,2.18371224 8.57017047,4.75471698 C7.01332017,2.87911386 5.59239437,1.83013815 4.30739308,1.60778986 C3.02239179,1.38544156 1.68015602,1.90611538 0.280685776,3.16981132 Z" id="Path-5" fill="#481F0E"></path>
                                                                                </g>
                                                                                <g id="Group-15" transform="translate(0.000000, 3.169811)">
                                                                                    <g id="Group-13">
                                                                                        <g id="Group-14">
                                                                                            <rect id="Rectangle" fill="#FE7565" x="0" y="4.22641509" width="34.3235345" height="6.86792453" rx="3.432"></rect>
                                                                                            <g id="Group-12" transform="translate(10.561088, 0.000000)">
                                                                                                <path d="M9.68836785,7.01357946 C9.72178456,7.07907019 9.75299188,7.14587732 9.78189151,7.21390249 C10.1673143,6.9937338 10.6135429,6.86792453 11.0891419,6.86792453 C12.5473238,6.86792453 13.7294138,8.05056859 13.7294138,9.50943396 C13.7294138,10.9682993 12.5473238,12.1509434 11.0891419,12.1509434 C10.1488775,12.1509434 9.32340993,11.6592089 8.85564759,10.9187619 C8.31159361,11.3589811 7.61892643,11.6226415 6.86470691,11.6226415 C6.17497127,11.6226415 5.53671276,11.4021384 5.01651659,11.0277486 C4.49632041,11.4021384 3.85806191,11.6226415 3.16832627,11.6226415 C1.41850799,11.6226415 0,10.2034686 0,8.45283019 C0,6.70219174 1.41850799,5.28301887 3.16832627,5.28301887 C3.26069128,5.28301887 3.35213316,5.28697312 3.442492,5.29472165 C3.880972,4.94554934 4.22358003,4.53551444 4.47031611,4.06461695 C4.8515046,3.33711611 5.25647544,1.98224379 5.68522864,0 C6.99518244,0.743988321 8.0386768,1.68004836 8.81571172,2.80818011 C9.59274664,3.93631186 10.1256415,5.28891951 10.4143962,6.86600306 L9.68836785,7.01357946 Z" id="Combined-Shape" fill="#F95043"></path>
                                                                                                <ellipse id="Oval" fill="#FD8880" cx="4.22443502" cy="7.39622642" rx="1.58416313" ry="1.05660377"></ellipse>
                                                                                                <ellipse id="Oval" fill="#4A4A4A" transform="translate(3.696381, 11.094340) rotate(32.000000) translate(-3.696381, -11.094340) " cx="3.69638064" cy="11.0943396" rx="1.58437165" ry="1.05646482"></ellipse>
                                                                                                <ellipse id="Oval" fill="#4A4A4A" transform="translate(8.767806, 11.245357) scale(-1, 1) rotate(32.000000) translate(-8.767806, -11.245357) " cx="8.76780581" cy="11.2453568" rx="1.58437165" ry="1.05646482"></ellipse>
                                                                                            </g>
                                                                                        </g>
                                                                                    </g>
                                                                                </g>
                                                                            </g>
                                                                        </g>
                                                                        <ellipse id="Oval" fill="#BEDCE6" transform="translate(56.346546, 38.514927) rotate(41.000000) translate(-56.346546, -38.514927) " cx="56.3465456" cy="38.5149267" rx="9.50689668" ry="10.5639073"></ellipse>
                                                                    </g>
                                                                    <path d="M11.6728984,28.9395584 C5.08618547,35.4721182 1.41905218,36.1477346 0.671498549,30.9664075 C-0.449831901,23.1944169 -0.667881762,18.3118912 4.07480695,11.5588522 C8.81749566,4.80581319 13.2068601,1.27453509e-15 26.2687119,0 C45.9101561,0.339727789 63.6721776,18.9534733 65.7412199,23.649459 C66.2702582,24.8501867 68.0244072,28.2503119 71.0036669,33.8498345 C72.6867727,39.2841827 71.2747155,42.9519829 68.4323631,48.0286627 C66.5374615,51.4131158 63.7630342,51.042397 60.1090812,46.9165062 C59.6010472,45.5380677 57.7097542,42.7204577 54.4352022,38.463676 C51.1606502,34.2068944 45.6133471,30.8560879 37.7932927,28.4112565 C31.9538521,27.7848842 27.1008854,27.4716981 23.2343926,27.4716981 C19.3678998,27.4716981 15.5140684,27.9609849 11.6728984,28.9395584 Z" id="Path-8" fill="#F5F1EE"></path>
                                                                </g>
                                                            </g>
                                                            <path d="M7.96029771,34.8512165 C10.5808375,33.031385 14.5633068,32.0944165 17.5567685,33.2871114 C20.5502303,34.4798062 20.1444693,38.0575258 19.301613,39.3699742 C18.4587567,40.6824225 15.8044435,40.0780084 13.0582056,40.2920205 C10.3119676,40.5060327 8.5001948,40.9667735 7.46976662,40.2920205 C6.43933844,39.6172676 5.33975795,36.6710479 7.96029771,34.8512165 Z" id="Path-10" fill="#8FBED2"></path>
                                                            <path d="M31.0417724,34.4831973 C33.6624142,32.6632475 37.6449496,31.7260897 40.6383686,32.9186326 C43.6317876,34.1111755 43.2258503,37.6888965 42.3829257,39.0013792 C41.5400012,40.3138619 38.8857038,39.7095802 36.1394414,39.9237251 C33.3931789,40.1378699 31.5813744,40.5986966 30.5509738,39.9239974 C29.5205732,39.2492981 28.4211306,36.303147 31.0417724,34.4831973 Z" id="Path-10-Copy" fill="#8FBED2" transform="translate(36.206620, 36.331816) scale(-1, 1) rotate(-6.000000) translate(-36.206620, -36.331816) "></path>
                                                        </g>
                                                    </g>
                                                    <ellipse id="Oval" fill="#BEDCE6" transform="translate(83.370671, 49.869674) rotate(16.000000) translate(-83.370671, -49.869674) " cx="83.3706709" cy="49.8696742" rx="9.50531746" ry="14.5277848"></ellipse>
                                                    <g id="Path-4-Copy" transform="translate(0.000000, 52.830189)">
                                                        <mask id="mask-4" fill="white">
                                                            <use xlink:href="#path-3"></use>
                                                        </mask>
                                                        <use id="Mask" fill="#DCEBF2" xlink:href="#path-3"></use>
                                                        <g id="Path-4-+-Path-4-Copy-2-Mask" mask="url(#mask-4)">
                                                            <g transform="translate(45.412676, 3.698113)">
                                                                <mask id="mask-6" fill="white">
                                                                    <use xlink:href="#path-5"></use>
                                                                </mask>
                                                                <use id="Mask" stroke="none" fill="#F96B5A" fill-rule="evenodd" xlink:href="#path-5"></use>
                                                                <path d="M-0.528054378,-2.64150943 L17.0644426,-2.64150943 C16.5129097,2.32507998 13.5808269,4.80837469 8.2681941,4.80837469 C2.95556129,4.80837469 0.023478467,2.32507998 -0.528054378,-2.64150943 Z" id="Path-4" stroke="none" fill="#491C0D" fill-rule="evenodd" mask="url(#mask-6)"></path>
                                                                <path d="M0,-5.28301887 L16.5363882,-5.28301887 C16.0179649,-0.31642945 13.2619002,2.16686526 8.2681941,2.16686526 C3.27448805,2.16686526 0.518423351,-0.31642945 0,-5.28301887 Z" id="Path-4-Copy-2" stroke="none" fill="#F6F1EF" fill-rule="evenodd" mask="url(#mask-6)"></path>
                                                            </g>
                                                        </g>
                                                        <path d="M30.6271539,-0.780339586 C35.2016381,2.03293299 41.688889,3.65272213 50.0889066,4.07902784 C58.4889242,4.50533354 67.9600069,3.69543897 78.5021547,1.64934413 L62.450323,-8.45283019 L30.6271539,-0.780339586 Z" id="Path-3" fill="#BEDDE6" mask="url(#mask-4)"></path>
                                                        <path d="M-2.07101965,33.2830189 C10.9386082,49.8194863 27.9143661,56.5835201 48.856254,53.5751203 C80.2690859,49.0625207 81.3435956,28.2166298 81.9133902,24.3979102 C82.2932532,21.8520972 81.6015229,15.1757609 79.8381992,4.36890133 C88.2304685,8.46385663 93.0542889,14.0970082 94.3096603,21.268356 C96.1927174,32.0253777 100.63216,43.1053908 90.7784038,56.03945 C84.2092332,64.6621561 73.2762513,71.4203279 57.9794581,76.3139653 C39.8187033,73.791839 25.798281,70.2554472 15.9181912,65.70479 C6.03810135,61.1541327 0.0416977367,50.3468756 -2.07101965,33.2830189 Z" fill="#BEDCE6" mask="url(#mask-4)"></path>
                                                    </g>
                                                </g>
                                            </g>
                                        </g>
                                    </g>
                                </g>
                            </g>
                        </g>
                    </g>
                </g>
                <g id="Group-42" transform="translate(335.731415, 38.400000)">
                    <g id="005-girl" transform="translate(62.585514, 0.180645)">
                        <path d="M60.7354607,72.2580645 C60.7354607,72.2580645 50.119551,76.5935484 30.4578423,76.5935484 C10.7961336,76.5935484 0.180043695,72.2580645 0.180043695,72.2580645 L3.99304115,24.4837419 C5.09673243,10.6569806 16.6134013,0 30.4518949,0 L30.4634293,0 C44.3021031,0 55.818772,10.6569806 56.922283,24.4837419 L60.7354607,72.2580645 Z" id="Path" fill="#E69F5F"></path>
                        <path d="M38.173769,1.15215484 C35.7284908,0.408258065 33.1415567,0 30.4634293,0 L30.4520751,0 C16.6134013,0 5.09655221,10.6569806 3.99304115,24.4837419 L0.180043695,72.2580645 C0.180043695,72.2580645 5.38418958,74.3734194 15.2227935,75.6485935 L38.173769,1.15215484 Z" id="Path" fill="#E09156"></path>
                        <path d="M57.741581,74.785471 L57.4665593,73.8412387 C57.3337342,73.3851097 56.8903834,73.105471 56.4344169,73.1636387 L55.4731025,65.937471 C55.1573502,63.5634323 53.6885253,61.5006452 51.55143,60.4296 L48.4458114,58.8731613 C47.9831766,58.6412129 47.4527777,58.8469677 47.2264164,59.2868387 L41.0802401,57.0201032 C39.902657,56.6266581 39.1085904,55.5221935 39.1085904,54.2780903 L39.1085904,49.6170839 L45.3192869,47.0232 C48.5431324,45.6770323 50.6429212,42.5198968 50.6429212,39.0193548 L50.6429212,37.5741935 C53.0317893,37.5741935 54.9682953,35.6331613 54.9682953,33.2387097 C54.9682953,30.8442581 53.0317893,28.9032258 50.6429212,28.9032258 L50.6429212,26.0129032 C50.6429212,22.022271 47.4152911,15.8967742 43.4339645,15.8967742 L17.4817201,15.8967742 C13.5003936,15.8967742 10.2727634,22.022271 10.2727634,26.0129032 L10.2727634,28.9032258 C7.88389534,28.9032258 5.94738933,30.8442581 5.94738933,33.2387097 C5.94738933,35.6331613 7.88389534,37.5741935 10.2727634,37.5741935 L10.2727634,39.0193548 C10.2727634,42.5198968 12.3725523,45.6770323 15.5962175,47.0233806 L21.8070942,49.6174452 L21.8070942,54.278271 C21.8070942,55.5223742 21.0128474,56.6268387 19.8354445,57.0202839 L13.6896287,59.2868387 C13.4657906,58.8464258 12.9364729,58.6395871 12.474559,58.8709935 L9.64252034,60.2903226 C7.22571759,61.5015484 5.75833444,63.5637935 5.44258213,65.9376516 L4.48126775,73.1638194 C4.02530123,73.1056516 3.58213061,73.3852903 3.44912536,73.8414194 L3.17410366,74.7856516 C3.02686072,75.2912774 3.31648056,75.8205677 3.82074708,75.9681548 L5.94738933,76.5897548 L5.94738933,80.9290323 C5.94738933,82.5252129 7.23851348,83.8193548 8.83097203,83.8193548 L14.5981374,83.8193548 L46.3175472,83.8193548 L52.0847126,83.8193548 C53.6771711,83.8193548 54.9682953,82.5252129 54.9682953,80.9290323 L54.9682953,76.5897548 L57.0947573,75.9679742 C57.5990238,75.8205677 57.8886437,75.2910968 57.741581,74.785471 Z" id="Path" fill="#FFD7A3"></path>
                        <path d="M39.1085904,49.6172645 L21.8070942,49.6174452 L21.8070942,54.278271 C21.8070942,55.3066839 21.2633586,56.2386323 20.4099984,56.7532903 C32.4714842,58.8420903 39.1085904,49.6172645 39.1085904,49.6172645 Z" id="Path" fill="#FDC88E"></path>
                        <path d="M50.6429212,28.9032258 L50.6429212,26.0129032 C50.6429212,22.022271 47.4152911,15.8967742 43.4339645,15.8967742 L17.4817201,15.8967742 C13.5003936,15.8967742 10.2727634,22.022271 10.2727634,26.0129032 L10.2727634,28.9032258 C7.88389534,28.9032258 5.94738933,30.8442581 5.94738933,33.2387097 C5.94738933,35.6331613 7.88389534,37.5741935 10.2727634,37.5741935 L10.2727634,39.0193548 C10.2727634,42.5198968 12.3725523,45.6770323 15.5962175,47.0233806 L24.9121721,50.9141161 C26.6693553,51.6480774 28.5541371,52.0258065 30.4576621,52.0258065 C32.3611871,52.0258065 34.2457886,51.6478968 36.0029719,50.9141161 L45.3194671,47.0232 C48.5431324,45.6770323 50.6429212,42.5198968 50.6429212,39.0193548 L50.6429212,37.5741935 C53.0317893,37.5741935 54.9682953,35.6331613 54.9682953,33.2387097 C54.9682953,30.8442581 53.0317893,28.9032258 50.6429212,28.9032258 Z" id="Path" fill="#FFE1B2"></path>
                        <path d="M40.5503818,34.683871 C39.7573965,34.683871 39.1085904,34.0335484 39.1085904,33.2387097 L39.1085904,31.7935484 C39.1085904,30.9987097 39.7573965,30.3483871 40.5503818,30.3483871 C41.343367,30.3483871 41.9921731,30.9987097 41.9921731,31.7935484 L41.9921731,33.2387097 C41.9921731,34.0335484 41.3431868,34.683871 40.5503818,34.683871 Z" id="Path" fill="#623F33"></path>
                        <path d="M30.4576621,44.8395613 C27.8943373,44.8395613 25.4966383,44.2073032 23.879489,43.1044645 C23.2213113,42.6557419 23.0500986,41.756671 23.4986759,41.0969548 C23.9456312,40.4379613 24.8433266,40.2663484 25.5015043,40.7152516 C26.6349325,41.487871 28.4878147,41.9494194 30.4576621,41.9494194 C32.4275095,41.9494194 34.2803916,41.487871 35.4138199,40.7152516 C36.0734394,40.2650839 36.9689721,40.4372387 37.4166483,41.0969548 C37.8650454,41.756671 37.6940129,42.6557419 37.0358351,43.1044645 C35.4190464,44.2073032 33.0211671,44.8395613 30.4576621,44.8395613 Z" id="Path" fill="#E4B07B"></path>
                        <path d="M17.8412669,44.0273806 C16.6730554,42.7720774 16.0399288,41.1152 16.0399288,39.3983484 L16.0399288,33.1801806 C23.9029182,32.5831484 34.5182872,27.3626839 40.8791102,22.3674839 L39.1085904,20.5928258 C39.1085904,20.5928258 26.3126922,28.9025032 10.2727634,28.9025032 L10.2727634,28.9032258 C7.88389534,28.9032258 5.94738933,30.8442581 5.94738933,33.2387097 C5.94738933,35.6331613 7.88389534,37.5741935 10.2727634,37.5741935 L10.2727634,39.0193548 C10.2727634,42.5198968 12.3725523,45.6770323 15.5962175,47.0233806 L24.9119919,50.9141161 C25.3679584,51.1045161 25.8332966,51.2685419 26.3045821,51.4107097 C22.1873667,48.3917677 19.4468818,45.7529032 17.8412669,44.0273806 Z" id="Path" fill="#FFD7A3"></path>
                        <path d="M56.6247333,74.5948903 L55.4731025,65.937471 C55.1573502,63.5634323 53.6885253,61.5006452 51.55143,60.4296 L48.4458114,58.8731613 C47.9197378,58.6094194 47.3055347,58.9114581 47.1510828,59.4804903 C45.1523996,66.8437677 38.4368959,72.2586065 30.4574819,72.2586065 C22.4762656,72.2586065 15.7593202,66.8410581 13.7624391,59.4748903 C13.6088883,58.9087484 12.9979293,58.6083355 12.474559,58.8706323 L9.64252034,60.2899613 C7.22571759,61.5011871 5.75833444,63.5634323 5.44258213,65.9372903 L4.26896397,74.7592774 C8.07781627,76.0740129 14.5979572,78.0387097 14.5979572,78.0387097 L14.5979572,83.8193548 L46.317367,83.8193548 L46.317367,78.0387097 L56.6247333,74.5948903 Z" id="Path" fill="#FBC658"></path>
                        <path d="M14.5622729,77.5972129 C14.4741434,75.8787355 13.9017522,74.2182452 12.8678076,72.8363097 L6.09913787,63.7903226 C5.7723919,64.4648516 5.54278663,65.1827355 5.44222168,65.9376516 L4.29942181,74.5293161 L14.5622729,77.5972129 Z" id="Path" fill="#E1B354"></path>
                        <path d="M3.17410366,74.785471 C3.02686072,75.2910968 3.31648056,75.8205677 3.82074708,75.9679742 L14.5979572,79.1191484 L14.5979572,78.0387097 C14.5979572,77.3560516 14.4909042,76.6873032 14.3346501,76.0312 L4.62851069,73.1932645 C4.12424416,73.0458581 3.59618808,73.3359742 3.44912536,73.8414194 L3.17410366,74.785471 Z" id="Path" fill="#C9A04B"></path>
                        <path d="M46.3532315,77.5972129 C46.441361,75.8787355 47.0137522,74.2182452 48.0476968,72.8363097 L54.8163665,63.7903226 C55.1431125,64.4648516 55.3727178,65.1827355 55.4732827,65.9376516 L56.6160826,74.5293161 L46.3532315,77.5972129 Z" id="Path" fill="#E1B354"></path>
                        <path d="M57.741581,74.785471 C57.8888239,75.2910968 57.5992041,75.8205677 57.0949375,75.9679742 L46.3175472,79.1191484 L46.3175472,78.0387097 C46.3175472,77.3560516 46.4246002,76.6873032 46.5808543,76.0312 L56.2869937,73.1932645 C56.7912602,73.0458581 57.3193163,73.3359742 57.466379,73.8414194 L57.741581,74.785471 Z" id="Path" fill="#C9A04B"></path>
                        <path d="M20.3651226,34.683871 C19.5721374,34.683871 18.9233313,34.0335484 18.9233313,33.2387097 L18.9233313,31.7935484 C18.9233313,30.9987097 19.5721374,30.3483871 20.3651226,30.3483871 C21.1581079,30.3483871 21.806914,30.9987097 21.806914,31.7935484 L21.806914,33.2387097 C21.806914,34.0335484 21.1581079,34.683871 20.3651226,34.683871 Z" id="Path" fill="#623F33"></path>
                        <path d="M7.34052022,20.4085677 L7.38918068,29.9968516 C20.9962668,29.9968516 32.2779237,25.7352516 39.6795398,21.8978065 C37.3797024,24.3984774 33.920124,27.8023742 29.0158707,31.7935484 C29.0158707,31.7935484 41.8532205,26.6769548 49.0445153,20.3224 L49.0445153,20.3218581 C49.0445153,10.8938065 41.4194215,3.25089032 32.013355,3.25089032 L24.3713201,3.25089032 C14.9315517,3.25089032 7.29240044,10.9469161 7.34052022,20.4085677 Z" id="Path" fill="#E69F5F"></path>
                        <path d="M37.268324,4.0804129 C35.6131475,3.54263226 33.8474938,3.25107097 32.0135352,3.25107097 L24.3715003,3.25107097 C14.9315517,3.25107097 7.29258066,10.9469161 7.34052022,20.4087484 L7.38918068,29.9972129 C11.3569905,29.9972129 15.1254726,29.6330323 18.6593032,29.0244387 C31.6842661,19.0264516 37.2472378,4.13713548 37.268324,4.0804129 Z" id="Path" fill="#E09156"></path>
                    </g>
                    <g id="006-boy">
                        <path d="M56.5232673,78.9460903 L54.6983199,64.3116645 C54.4227575,62.1027355 52.9063534,60.2485935 50.7995358,59.5446194 L43.7623325,57.1933419 C42.7959718,56.8703484 41.7358947,57.0761032 40.9906688,57.7125161 L38.9177333,57.0199226 C37.7403304,56.6264774 36.9460836,55.5220129 36.9460836,54.2779097 L36.9460836,49.6169032 L43.1567801,47.0230194 C46.3804453,45.6770323 48.4802342,42.5198968 48.4802342,39.0193548 L48.4802342,37.5741935 C50.8691023,37.5741935 52.8056083,35.6331613 52.8056083,33.2387097 C52.8056083,32.1586323 52.4107377,31.1715871 51.7588678,30.4125161 C52.9827684,25.947329 56.4227023,11.8230452 52.8056083,5.78064516 L54.2473996,0 C54.2473996,0 39.1085904,0.361290323 31.178738,2.89032258 L34.0623207,0 C34.0623207,0 13.7871298,0 9.55312928,7.22454194 L9.55186771,7.22580645 C9.55186771,7.22580645 2.34291095,7.16565161 2.34291095,15.8967742 C2.34291095,19.0923871 4.12118036,27.0718452 4.88460888,30.3510968 C4.20101955,31.1177548 3.7847023,32.1293677 3.7847023,33.2387097 C3.7847023,35.6331613 5.72120831,37.5741935 8.11007636,37.5741935 L8.11007636,39.0193548 C8.11007636,42.5197161 10.2098652,45.6768516 13.4335305,47.0233806 L19.6444072,49.6172645 L19.6444072,54.2780903 C19.6444072,55.5221935 18.8501604,56.6266581 17.6727575,57.0201032 L15.599822,57.7126968 C14.8545961,57.0762839 13.794519,56.870529 12.8281583,57.1935226 L5.79095497,59.5448 C3.68395713,60.2487742 2.16755307,62.1029161 1.89217093,64.3118452 L0.0672235218,78.946271 C-0.255557517,81.5338323 1.75736343,83.8193548 4.35907593,83.8193548 L4.39962631,83.8193548 L52.1906843,83.8193548 L52.2312346,83.8193548 C54.8329471,83.8193548 56.8460483,81.5338323 56.5232673,78.9460903 Z" id="Path" fill="#FFD7A3"></path>
                        <path d="M36.9459034,49.6172645 L19.6444072,49.6174452 L19.6444072,54.278271 C19.6444072,55.3186065 19.0702138,56.2348387 18.199552,56.7457032 C30.2914956,58.8670194 36.9459034,49.6172645 36.9459034,49.6172645 Z" id="Path" fill="#FDC88E"></path>
                        <path d="M5.22649365,31.7935484 C5.22649365,31.7935484 2.34291095,19.9659871 2.34291095,15.8967742 C2.34291095,7.16565161 9.55186771,7.22580645 9.55186771,7.22580645 L9.55312928,7.22454194 C13.7871298,0 34.0623207,0 34.0623207,0 L31.178738,2.89032258 C39.1085904,0.361290323 54.2473996,0 54.2473996,0 L52.8056083,5.78064516 C57.1309823,13.0064516 51.3638169,31.7935484 51.3638169,31.7935484 L5.22649365,31.7935484 Z" id="Path" fill="#734A3E"></path>
                        <path d="M34.0623207,0 C34.0623207,0 13.7871298,0 9.55312928,7.22454194 L9.55186771,7.22580645 C9.55186771,7.22580645 2.34291095,7.16565161 2.34291095,15.8967742 C2.34291095,19.9659871 5.22649365,31.7935484 5.22649365,31.7935484 C5.22649365,31.7935484 35.203859,18.3656516 54.2473996,0 C54.2473996,0 39.1085904,0.361290323 31.178738,2.89032258 L34.0623207,0 Z" id="Path" fill="#623F33"></path>
                        <path d="M48.4802342,28.9032258 L48.4802342,26.0129032 C48.4802342,22.022271 45.2526041,18.7870968 41.2712775,18.7870968 L15.3190331,18.7870968 C11.3377065,18.7870968 8.11007636,22.022271 8.11007636,26.0129032 L8.11007636,28.9032258 C5.72120831,28.9032258 3.7847023,30.8442581 3.7847023,33.2387097 C3.7847023,35.6331613 5.72120831,37.5741935 8.11007636,37.5741935 L8.11007636,39.0193548 C8.11007636,42.5197161 10.2098652,45.6768516 13.4335305,47.0233806 L22.7494851,50.9141161 C24.5066683,51.6480774 26.39145,52.0258065 28.2949751,52.0258065 C30.1985001,52.0258065 32.0831016,51.6478968 33.8402848,50.9141161 L43.1567801,47.0232 C46.3804453,45.6770323 48.4802342,42.5198968 48.4802342,39.0193548 L48.4802342,37.5741935 C50.8691023,37.5741935 52.8056083,35.6331613 52.8056083,33.2387097 C52.8056083,30.8442581 50.8691023,28.9032258 48.4802342,28.9032258 Z" id="Path" fill="#FFE1B2"></path>
                        <path d="M18.2026158,34.683871 C17.4096306,34.683871 16.7608245,34.0335484 16.7608245,33.2387097 L16.7608245,31.7935484 C16.7608245,30.9987097 17.4096306,30.3483871 18.2026158,30.3483871 C18.9956011,30.3483871 19.6444072,30.9987097 19.6444072,31.7935484 L19.6444072,33.2387097 C19.6444072,34.0335484 18.9956011,34.683871 18.2026158,34.683871 Z" id="Path" fill="#623F33"></path>
                        <path d="M38.3876948,34.683871 C37.5947095,34.683871 36.9459034,34.0335484 36.9459034,33.2387097 L36.9459034,31.7935484 C36.9459034,30.9987097 37.5947095,30.3483871 38.3876948,30.3483871 C39.18068,30.3483871 39.8294861,30.9987097 39.8294861,31.7935484 L39.8294861,33.2387097 C39.8294861,34.0335484 39.18068,34.683871 38.3876948,34.683871 Z" id="Path" fill="#623F33"></path>
                        <path d="M28.2951553,44.8395613 C25.7318305,44.8395613 23.3341315,44.2073032 21.7169822,43.1044645 C21.0588045,42.6557419 20.8875918,41.756671 21.3361691,41.0969548 C21.7831244,40.4379613 22.6808198,40.2663484 23.3389975,40.7152516 C24.4724257,41.487871 26.3253079,41.9494194 28.2951553,41.9494194 C30.2650027,41.9494194 32.1178848,41.487871 33.2513131,40.7152516 C33.9109326,40.2650839 34.8064653,40.4372387 35.2541415,41.0969548 C35.7025386,41.756671 35.5315061,42.6557419 34.8733283,43.1044645 C33.2563593,44.2073032 30.8584801,44.8395613 28.2951553,44.8395613 Z" id="Path" fill="#E4B07B"></path>
                        <path d="M56.5232673,78.946271 L54.6983199,64.3118452 C54.4229377,62.1029161 52.9063534,60.2487742 50.7995358,59.5448 L43.7623325,57.1935226 C42.5368098,56.784 41.1580968,57.2213419 40.4658568,58.3146065 C37.9099211,62.3509419 33.41784,65.0322581 28.2951553,65.0322581 C23.1724706,65.0322581 18.6803894,62.3507613 16.124634,58.3146065 C15.432394,57.2213419 14.053681,56.784 12.8281583,57.1935226 L5.79095497,59.5448 C3.68395713,60.2487742 2.16755307,62.1029161 1.89217093,64.3118452 L0.0672235218,78.946271 C-0.255557517,81.5338323 1.75754366,83.8195355 4.35925615,83.8195355 L52.2314149,83.8195355 C54.8329471,83.8195355 56.8460483,81.5338323 56.5232673,78.946271 Z" id="Path" fill="#51CBCE"></path>
                        <path d="M3.09408424,61.4497032 C2.45392888,62.2620645 2.0253564,63.2435097 1.89217093,64.3116645 L0.0672235218,78.9460903 C-0.255557517,81.5338323 1.75754366,83.8193548 4.35925615,83.8193548 L12.4354504,83.8193548 L12.4354504,74.4137032 C12.4354504,73.0232774 11.9355093,71.6796387 11.0273609,70.6286452 L3.09408424,61.4497032 Z" id="Path" fill="#3EBABD"></path>
                        <path d="M53.4962263,61.4497032 C54.1363817,62.2620645 54.5649542,63.2435097 54.6981396,64.3116645 L56.5230871,78.9460903 C56.8458681,81.5338323 54.8327669,83.8193548 52.2310544,83.8193548 L44.1548602,83.8193548 L44.1548602,74.4137032 C44.1548602,73.0232774 44.6548013,71.6796387 45.5629496,70.6286452 L53.4962263,61.4497032 Z" id="Path" fill="#3EBABD"></path>
                        <path d="M15.6787601,44.0273806 C14.5105486,42.7718968 13.877422,41.1152 13.877422,39.3983484 L13.877422,23.0210581 C18.4664636,22.6762065 32.9350201,21.4219871 41.2714577,18.7870968 L15.3190331,18.7870968 C14.8226964,18.7870968 14.3420393,18.8450839 13.8772418,18.9462452 L13.8772418,18.9326968 C10.5868937,19.6023484 8.11007636,22.5172387 8.11007636,26.0129032 L8.11007636,28.9032258 C5.72120831,28.9032258 3.7847023,30.8442581 3.7847023,33.2387097 C3.7847023,35.6331613 5.72120831,37.5741935 8.11007636,37.5741935 L8.11007636,39.0193548 C8.11007636,42.5198968 10.2098652,45.6770323 13.4335305,47.0233806 L22.7493049,50.9141161 C23.2052714,51.1045161 23.6706095,51.2685419 24.1418951,51.4107097 C20.0248599,48.3917677 17.284375,45.7527226 15.6787601,44.0273806 Z" id="Path" fill="#FFD7A3"></path>
                    </g>
                </g>
                <g id="Group-43" transform="translate(32.374101, 178.800000)">
                    <path d="M64.4161392,56.2744711 L7.53562033,56.2744711 C3.37318642,56.2744711 7.81597009e-14,51.1543002 7.81597009e-14,44.841003 L7.81597009e-14,11.4334681 C7.81597009e-14,5.12017092 3.37318642,-1.77635684e-14 7.53562033,-1.77635684e-14 L64.4161392,-1.77635684e-14 C68.5811779,-1.77635684e-14 71.9569691,5.12017092 71.9569691,11.4334681 L71.9569691,44.841003 C71.9569691,51.1543002 68.5811779,56.2744711 64.4161392,56.2744711" id="Fill-39-Copy" fill="#E5EBF1"></path>
                    <polygon id="Fill-40-Copy" fill="#E5EBF1" points="69.5443645 31.2 69.5443645 44.9402508 85.2173087 31.2"></polygon>
                    <g id="Group-41" transform="translate(8.393285, 8.400000)">
                        <g id="003-candy-1" transform="translate(16.606304, 23.605988) scale(-1, 1) rotate(-18.000000) translate(-16.606304, -23.605988) translate(3.427467, 10.333699)">
                            <path d="M23.8146474,9.38498313 L25.8427241,8.50950361 C26.0779907,8.4077494 26.2307676,8.17474699 26.2307676,7.9166747 L26.2307676,6.90159036 C26.2307676,6.54569639 25.9442499,6.25665542 25.5903737,6.25665542 L24.8001316,6.25665542 C24.4467435,6.25665542 24.1597377,5.96810602 24.1597377,5.61172048 L24.1597377,4.8158747 C24.1597377,4.45998072 23.87322,4.17093976 23.5193438,4.17093976 L22.7291017,4.17093976 C22.3757136,4.17093976 22.0887078,3.88239036 22.0887078,3.52600482 L22.0887078,2.73015904 C22.0887078,2.37426506 21.8021901,2.0852241 21.4483139,2.0852241 L20.6580718,2.0852241 C20.3046837,2.0852241 20.0176779,1.7966747 20.0176779,1.44028916 L20.0176779,0.64493494 C20.018166,0.288549398 19.7316483,0 19.3777721,0 L18.369347,0 C18.1130918,0 17.88173,0.153860241 17.7806923,0.390795181 L16.9118652,2.43325301 C12.5501581,7.75101687 7.69644108,12.6391518 2.4161202,17.031788 L0.37291229,17.9136578 C0.146431527,18.0114795 0,18.2351422 0,18.4828916 L0,19.5412337 C0,19.8833639 0.275291271,20.1606072 0.615012415,20.1606072 L1.45650559,20.1606072 C1.79622674,20.1606072 2.07151801,20.4378506 2.07151801,20.7799807 L2.07151801,21.627441 C2.07151801,21.9695711 2.34680928,22.2468145 2.68653042,22.2468145 L3.5280236,22.2468145 C3.86774474,22.2468145 4.14303601,22.5240578 4.14303601,22.866188 L4.14303601,23.7136482 C4.14303601,24.0557783 4.41832729,24.3330217 4.75804843,24.3330217 L5.59954161,24.3330217 C5.93926275,24.3330217 6.21455402,24.6102651 6.21455402,24.9523952 L6.21455402,25.7998554 C6.21455402,26.1419855 6.48984529,26.4192289 6.82956644,26.4192289 L7.8804567,26.4192289 C8.12646166,26.4192289 8.34854948,26.271759 8.44568239,26.0441639 L9.32134293,23.9864675 C13.6806095,18.6662458 18.5348146,13.7776193 23.8146474,9.38498313 Z" id="Path" fill="#6A3311"></path>
                            <path d="M17.9476242,4.66250602 C17.8226693,4.66250602 17.6977144,4.61433253 17.6025339,4.51847711 C17.4116848,4.3262747 17.4116848,4.01560482 17.6025339,3.82340241 L18.2927145,3.12832771 C18.4835636,2.9361253 18.792046,2.9361253 18.9828951,3.12832771 C19.1737442,3.32053012 19.1737442,3.6312 18.9828951,3.82340241 L18.2927145,4.51847711 C18.1970459,4.61433253 18.072091,4.66250602 17.9476242,4.66250602 Z" id="Path" fill="#A46F3E"></path>
                            <path d="M19.3279854,6.05314699 C19.2030305,6.05314699 19.0780756,6.00497349 18.9828951,5.90911807 C18.792046,5.71740723 18.792046,5.40624578 18.9828951,5.21404337 L19.6730757,4.51847711 C19.8639248,4.3262747 20.1724072,4.3262747 20.3632563,4.51847711 C20.5541054,4.71018795 20.5541054,5.0213494 20.3632563,5.21355181 L19.6730757,5.90911807 C19.5774071,6.00497349 19.4529403,6.05314699 19.3279854,6.05314699 Z" id="Path" fill="#A46F3E"></path>
                            <path d="M20.7088347,7.44329639 C20.5838798,7.44329639 20.4589249,7.39512289 20.3637444,7.29926747 C20.1728953,7.10706506 20.1728953,6.79639518 20.3637444,6.60419277 L21.053925,5.90911807 C21.2447741,5.71691566 21.5532565,5.71691566 21.7441056,5.90911807 C21.9349547,6.10132048 21.9349547,6.41199036 21.7441056,6.60419277 L21.053925,7.29926747 C20.9587445,7.39561446 20.8337896,7.44329639 20.7088347,7.44329639 Z" id="Path" fill="#A46F3E"></path>
                            <path d="M22.0891959,8.83344578 C21.964241,8.83344578 21.8392861,8.78527229 21.7441056,8.68941687 C21.5532565,8.49721446 21.5532565,8.18654458 21.7441056,7.99434217 L22.4342862,7.29926747 C22.6251353,7.10706506 22.9336177,7.10706506 23.1244668,7.29926747 C23.3153159,7.49146988 23.3153159,7.80213976 23.1244668,7.99434217 L22.4342862,8.68941687 C22.3391057,8.78576386 22.2141508,8.83344578 22.0891959,8.83344578 Z" id="Path" fill="#A46F3E"></path>
                            <path d="M3.4513911,19.261041 C3.3264362,19.261041 3.20148129,19.2128675 3.1063008,19.117012 C2.91545171,18.9248096 2.91545171,18.6141398 3.1063008,18.4219373 L3.7964814,17.7268627 C3.98733049,17.5346602 4.29581291,17.5346602 4.486662,17.7268627 C4.67751109,17.9190651 4.67751109,18.2297349 4.486662,18.4219373 L3.7964814,19.117012 C3.70130091,19.213359 3.576346,19.261041 3.4513911,19.261041 Z" id="Path" fill="#A46F3E"></path>
                            <path d="M4.8322404,20.6516819 C4.7072855,20.6516819 4.5823306,20.6035084 4.4871501,20.507653 C4.29630101,20.3154506 4.29630101,20.0047807 4.4871501,19.8125783 L5.1773307,19.1175036 C5.36817979,18.9253012 5.67666221,18.9253012 5.8675113,19.1175036 C6.05836039,19.309706 6.05836039,19.6203759 5.8675113,19.8125783 L5.1773307,20.507653 C5.0816621,20.604 4.9567072,20.6516819 4.8322404,20.6516819 Z" id="Path" fill="#A46F3E"></path>
                            <path d="M6.2126016,22.0423229 C6.0876467,22.0423229 5.96269179,21.9941494 5.8675113,21.898294 C5.67666221,21.7060916 5.67666221,21.3954217 5.8675113,21.2032193 L6.5576919,20.5081446 C6.74854099,20.3159422 7.05702341,20.3159422 7.2478725,20.5081446 C7.43872159,20.700347 7.43872159,21.0110169 7.2478725,21.2032193 L6.5576919,21.898294 C6.4620233,21.9941494 6.3370684,22.0423229 6.2126016,22.0423229 Z" id="Path" fill="#A46F3E"></path>
                            <path d="M7.5934509,23.4324723 C7.468496,23.4324723 7.3435411,23.3842988 7.2483606,23.2884434 C7.05751151,23.096241 7.05751151,22.7855711 7.2483606,22.5933687 L7.9385412,21.898294 C8.12939029,21.7060916 8.43787271,21.7060916 8.6287218,21.898294 C8.81957089,22.0904964 8.81957089,22.4011663 8.6287218,22.5933687 L7.9385412,23.2884434 C7.8428726,23.3842988 7.71840581,23.4324723 7.5934509,23.4324723 Z" id="Path" fill="#A46F3E"></path>
                            <path d="M13.7489442,18.9223518 C16.0972178,16.3957012 18.5641009,13.9835855 21.1412958,11.6928867 L12.4818234,7.49392771 C10.1335498,10.0205783 7.66666667,12.432694 5.08947179,14.7233928 L13.7489442,18.9223518 Z" id="Path" fill="#F9D70B"></path>
                            <ellipse id="Oval" fill="#ED3F32" cx="13.4604741" cy="13.2083855" rx="2.684578" ry="2.70361446"></ellipse>
                        </g>
                        <g id="004-candy" transform="translate(29.286305, 0.000000)">
                            <path d="M20.3661849,1.59513253 C20.1333588,1.6683759 19.9146877,1.44815422 19.9869273,1.21318554 L20.2407419,0.39226988 C20.3227436,0.127315663 20.0372021,-0.0978216867 19.8004711,0.0432578313 C19.0990641,0.461580723 18.0633051,1.15813012 17.8426816,1.73621205 L16.873793,6.55749398 C14.4737803,5.51832289 11.0931644,6.3997012 8.5706373,8.94011566 C6.05591987,11.4726651 5.1773307,14.8639807 6.19405361,17.2795373 L1.83966809,17.929388 C1.21928652,18.1697639 0.496890983,19.2123759 0.0605250313,19.9261301 C-0.0883470215,20.1694554 0.141062371,20.4678361 0.411960697,20.3827952 L1.19390505,20.1375036 C1.42721929,20.0642602 1.64637847,20.2849735 1.57365081,20.5199422 L1.26907324,21.5070072 C1.19634558,21.7419759 1.41550476,21.9626892 1.648819,21.8894458 L2.62746971,21.5827084 C2.86078394,21.5094651 3.07994313,21.7301783 3.00721547,21.965147 L2.70263789,22.9507373 C2.62991023,23.185706 2.84906942,23.4064193 3.08238365,23.3331759 L4.06103436,23.0264386 C4.29434859,22.9531952 4.51350778,23.1739084 4.44078012,23.4088771 L4.13620254,24.3944675 C4.06347488,24.6294361 4.28263407,24.8501494 4.5159483,24.776906 L5.49459901,24.4701687 C5.72791324,24.3969253 5.94707243,24.6176386 5.87434477,24.8526072 L5.63078033,25.6400964 C5.54633815,25.9129157 5.84261794,26.1439518 6.08422996,25.9940241 C6.79295855,25.5540723 7.82871756,24.8270458 8.06691284,24.2022651 L8.73561682,19.7550651 C11.1244031,20.6880578 14.4108147,19.7909494 16.8772097,17.3070651 C19.3519025,14.8148241 20.24123,11.4918361 19.3001634,9.08414458 L24.1460708,8.08577349 C24.7059273,7.86899277 25.378048,6.87111325 25.7963541,6.16620723 C25.9486429,5.90911807 25.7055665,5.59992289 25.4219775,5.68889639 L24.6659027,5.92583133 C24.4330765,5.9990747 24.2144055,5.77885301 24.286645,5.54388434 L24.5921988,4.55583614 C24.6649265,4.32135904 24.4462554,4.10113735 24.2129412,4.17388916 L23.2318499,4.48160964 C22.9990238,4.55485301 22.7803527,4.33463133 22.8525923,4.09966265 L23.158146,3.11161446 C23.2308737,2.87713735 23.0122026,2.65691566 22.7788884,2.72966747 L21.7977972,3.03738795 C21.564971,3.11063133 21.3463,2.89040964 21.4185395,2.65544096 L21.7240933,1.66739277 C21.796821,1.43291566 21.5781499,1.21269398 21.3448356,1.28544578 L20.3661849,1.59513253 Z" id="Path" fill="#D13834"></path>
                            <path d="M15.5271111,10.1985253 C14.807156,9.47346506 13.8885423,9.07234699 12.9474756,8.99173012 L11.0609495,7.09182651 C10.1862651,7.55045783 9.3384266,8.16737349 8.5706373,8.94060723 C7.74037054,9.77676145 7.09265508,10.7072964 6.62797903,11.6648675 L8.46130176,13.5111904 C8.5418391,14.457947 8.94013285,15.3830747 9.65959975,16.1076434 C10.3790667,16.832212 11.2971923,17.2333301 12.2377708,17.3144386 L14.1721313,19.2625157 C15.12296,18.7950361 16.0474311,18.1432193 16.8776978,17.3065735 C17.644999,16.5338313 18.2595234,15.6804723 18.7144373,14.8000771 L16.7249209,12.796453 C16.6453598,11.8487133 16.2470661,10.9235855 15.5271111,10.1985253 Z" id="Path" fill="#E3E82A"></path>
                            <ellipse id="Oval" fill="#3DABEF" cx="12.5931114" cy="13.1528386" rx="2.19647291" ry="2.21204819"></ellipse>
                            <path d="M18.2234036,8.33155663 C18.1121156,8.33155663 17.9998514,8.29370602 17.9085758,8.21554699 C17.7025954,8.0405494 17.6767259,7.73037108 17.8509794,7.52293012 C18.5543388,6.6853012 19.1878992,6.66318072 19.8590437,6.63958554 C20.0718576,6.63221205 20.291993,6.62483855 20.542879,6.59288675 C20.8069438,6.56240964 21.0544131,6.75018795 21.0876043,7.01956627 C21.1207954,7.28894458 20.9314106,7.53472771 20.663929,7.56815422 C20.3691136,7.60502169 20.1162751,7.61436145 19.892723,7.62173494 C19.2757582,7.64336386 19.0204792,7.65221205 18.5963159,8.1570506 C18.4996711,8.27207711 18.3620254,8.33155663 18.2234036,8.33155663 Z" id="Path" fill="#F75B57"></path>
                            <path d="M17.8270622,7.97861205 C17.6557374,7.97861205 17.4902697,7.88767229 17.4004584,7.72693012 C17.26867,7.49048675 17.3526241,7.19063133 17.5878907,7.05790843 C18.5699582,6.50440482 19.1922922,5.13342651 19.0351223,3.86862651 C19.0014431,3.59924819 19.191316,3.35346506 19.4587976,3.32003855 C19.7243267,3.28906988 19.9703317,3.47684819 20.0035228,3.74671807 C20.2104794,5.41312771 19.3948558,7.16654458 18.0642813,7.91618313 C17.9896012,7.95845783 17.9075996,7.97861205 17.8270622,7.97861205 Z" id="Path" fill="#F75B57"></path>
                            <path d="M4.64676047,19.8052048 C4.40417224,19.8052048 4.19428705,19.6233253 4.16304832,19.3745928 C4.12936907,19.1052145 4.31924195,18.8594313 4.58672354,18.8260048 C4.88153902,18.7886458 5.13535366,18.7797976 5.3589058,18.7724241 C5.97538253,18.7507952 6.23066149,18.7414554 6.65433671,18.2371084 C6.82810212,18.0291759 7.13658454,18.0031229 7.34207678,18.1791036 C7.54805713,18.3541012 7.5739267,18.6642795 7.39967318,18.8717205 C6.69680185,19.7088578 6.06324144,19.7314699 5.39258505,19.7545735 C5.17928312,19.7624386 4.95914773,19.769812 4.70826171,19.8017639 C4.6877613,19.8037301 4.66726088,19.8052048 4.64676047,19.8052048 Z" id="Path" fill="#F75B57"></path>
                            <path d="M5.73035377,23.0785446 C5.48776554,23.0785446 5.27739225,22.8966651 5.24664162,22.6479325 C5.03968507,20.9815229 5.85530867,19.2276145 7.18588315,18.4779759 C7.4206617,18.3457446 7.71840581,18.4307855 7.85019418,18.6672289 C7.98198256,18.9036723 7.89802848,19.2035277 7.66276183,19.3362506 C6.68069438,19.8897542 6.05836039,21.2607325 6.21553023,22.5260241 C6.24920948,22.7954024 6.0593366,23.0411855 5.79185501,23.074612 C5.7713546,23.0770699 5.75085418,23.0785446 5.73035377,23.0785446 Z" id="Path" fill="#F75B57"></path>
                        </g>
                    </g>
                </g>
            </g>
        </g>
    </g>
</svg>