<?xml version="1.0" encoding="UTF-8"?>
<svg width="442px" height="481px" viewBox="0 0 442 481" version="1.1" xmlns="http://www.w3.org/2000/svg" xmlns:xlink="http://www.w3.org/1999/xlink">
    <!-- Generator: Sketch 52.2 (67145) - http://www.bohemiancoding.com/sketch -->
    <title>Group 89</title>
    <desc>Created with Sketch.</desc>
    <defs>
        <polygon id="path-1" points="0.0304347826 0 403.181232 0 403.181232 403.553299 0.0304347826 403.553299"></polygon>
    </defs>
    <g id="neujahr" stroke="none" stroke-width="1" fill="none" fill-rule="evenodd">
        <g id="Group-89">
            <g id="whatsapp-icon-seeklogo.com">
                <g id="Group-3">
                    <mask id="mask-2" fill="white">
                        <use xlink:href="#path-1"></use>
                    </mask>
                    <g id="Clip-2"></g>
                    <path d="M403.181232,201.753299 C403.181232,313.154822 312.914203,403.553299 201.590362,403.553299 C90.2381159,403.553299 0,313.154822 0,201.753299 C0,90.3517766 90.2381159,0 201.590362,0 C312.914203,0 403.181232,90.3517766 403.181232,201.753299" id="Fill-1" fill="#1C9646" mask="url(#mask-2)"></path>
                </g>
                <path d="M218.237681,299.069036 C212.835507,299.988325 207.405435,300.47665 204.545072,300.417259 C183.507029,300.354822 166.355,295.638579 150.581159,286.08731 C148.563333,284.861421 146.802174,284.553807 144.446014,285.168528 C133.842536,288.106599 123.163986,290.740609 112.544783,293.556853 C110.310362,294.230964 110.097319,293.741624 110.664928,291.719289 C113.478116,281.615736 116.126449,271.572081 119.033986,261.588325 C119.842536,258.772081 119.55442,256.627919 117.946957,254.115736 C96.1287681,219.024365 97.0468841,175.297462 121.465725,142.836548 C146.833623,109.030964 181.32029,95.1898477 222.583768,104.007614 C263.24971,112.583756 289.168986,138.854315 298.700652,179.339086 C311.720145,234.703046 274.172246,289.759391 218.237681,299.069036 Z M318.252971,173.641624 C305.108696,119.074619 258.201594,81.8538071 201.499058,81.2111675 C194.032391,81.3335025 186.21471,81.9446701 178.487319,83.5690355 C99.3873188,99.5984772 58.3992754,187.360406 96.956087,258.220305 C97.9492754,260.117766 98.0278986,261.650761 97.4760145,263.61066 C92.3497826,282.289848 87.2702174,300.969036 82.1597101,319.585787 C81.3328986,322.649239 81.3328986,322.649239 84.3941304,321.853299 C103.74913,316.770051 123.073188,311.746701 142.412464,306.604061 C144.016884,306.174619 145.273333,306.356345 146.739783,307.093401 C171.650145,319.830457 197.889493,323.568528 225.366522,318.241117 C291.017899,305.500508 333.92029,238.682234 318.252971,173.641624 Z" id="Fill-4" fill="#FFFEFD"></path>
                <path d="M232.801739,258.343147 C228.534275,258.527919 224.46413,257.546193 220.378261,256.44264 C192.916449,248.543655 172.308043,231.335025 155.751014,208.673604 C149.493623,200.159898 143.697319,191.34264 141.769783,180.747208 C139.457754,168.007107 143.114493,157.229442 152.586812,148.408629 C155.60087,145.652792 164.778478,144.429442 168.450942,146.204569 C169.813913,146.87868 170.685362,148.104569 171.251957,149.390355 C174.724058,157.658883 178.152029,165.802538 181.548551,174.071066 C182.191232,175.664467 181.91529,177.194416 181.197536,178.78731 C179.452101,182.584772 176.651087,185.645178 173.805942,188.645685 C171.650145,190.853299 171.556304,192.872589 173.148043,195.506599 C182.84913,211.674619 196.266304,223.433503 213.816522,230.476142 C216.432899,231.516751 218.407101,231.150254 220.148986,228.945685 C223.072754,225.333503 226.162391,221.718274 228.931957,217.983249 C230.828043,215.349239 233.002609,214.982741 235.678333,216.205584 C241.478696,218.839594 247.275,221.595431 253.074855,224.352284 C254.375942,224.904061 255.66029,225.578173 256.945145,226.18934 C262.820072,229.130964 262.760725,229.190355 262.256014,235.681218 C261.275,248.358883 251.774783,254.608122 240.512899,257.730964 C238.035,258.402538 235.402391,258.465482 232.801739,258.343147" id="Fill-5" fill="#FFFFFE"></path>
            </g>
            <g id="Group-88" transform="translate(319.818841, 347.461929) rotate(-23.000000) translate(-319.818841, -347.461929) translate(226.739130, 221.319797)">
                <path d="M62.6590708,251.381159 C62.6590708,251.381159 33.6620034,201.008401 14.0933632,163.630111 C-5.52637965,126.153101 0.423421427,121.407232 14.2941233,115.18422 C22.587343,111.462113 39.0934783,129.765519 47.1165843,139.535136 C48.6642626,141.421783 48.0583319,140.299301 48.0583319,137.860553 L48.0583319,15.0931803 C48.0583319,7.26871184 54.7016681,0.925042301 65.6522222,0.925042301 C73.4636175,0.925042301 79.9974481,7.26871184 79.9974481,15.0931803 L79.9974481,76.7931362 L85.4070219,71.3708526 C89.539031,67.2355845 95.1420645,64.9101817 100.98601,64.9101817 C106.829956,64.9101817 112.432989,67.2355845 116.564999,71.3708526 C118.860965,73.6706614 120.14948,76.7894799 120.14948,80.0435813 L120.14948,91.4183109 L124.434797,87.1258221 C127.533804,84.0216288 131.738816,82.2775767 136.119038,82.2775767 C140.50291,82.2775767 144.704273,84.0216288 147.803279,87.1258221 C151.132248,90.4567057 153.001142,94.9795409 153.001142,99.6961598 L153.001142,114.270146 L156.052697,111.213485 C159.356114,107.900883 163.842191,106.043486 168.514427,106.043486 C173.190314,106.043486 177.672741,107.900883 180.976158,111.213485 C183.808701,114.047112 185.396532,117.893533 185.396532,121.900831 L185.396532,193.567844 C185.396532,203.333804 183.126117,212.964482 178.767796,221.699367 L163.951697,251.381159 L62.6590708,251.381159" id="Fill-19" fill="#FFFFFF"></path>
                <path d="M62.6590708,251.381159 C62.6590708,251.381159 33.6620034,201.008401 14.0933632,163.630111 C-5.52637965,126.153101 0.423421427,121.407232 14.2941233,115.18422 C22.587343,111.462113 39.0934783,129.765519 47.1165843,139.535136 C48.6642626,141.421783 48.0583319,140.299301 48.0583319,137.860553 L48.0583319,15.0931803 C48.0583319,7.26871184 54.7016681,0.925042301 65.6522222,0.925042301 C73.4636175,0.925042301 79.9974481,7.26871184 79.9974481,15.0931803 L79.9974481,76.7931362 L85.4070219,71.3708526 C89.539031,67.2355845 95.1420645,64.9101817 100.98601,64.9101817 C106.829956,64.9101817 112.432989,67.2355845 116.564999,71.3708526 C118.860965,73.6706614 120.14948,76.7894799 120.14948,80.0435813 L120.14948,91.4183109 L124.434797,87.1258221 C127.533804,84.0216288 131.738816,82.2775767 136.119038,82.2775767 C140.50291,82.2775767 144.704273,84.0216288 147.803279,87.1258221 C151.132248,90.4567057 153.001142,94.9795409 153.001142,99.6961598 L153.001142,114.270146 L156.052697,111.213485 C159.356114,107.900883 163.842191,106.043486 168.514427,106.043486 C173.190314,106.043486 177.672741,107.900883 180.976158,111.213485 C183.808701,114.047112 185.396532,117.893533 185.396532,121.900831 L185.396532,193.567844 C185.396532,203.333804 183.126117,212.964482 178.767796,221.699367 L163.951697,251.381159 L62.6590708,251.381159 Z" id="Stroke-20" stroke="#231F20" stroke-width="10.964467"></path>
            </g>
        </g>
    </g>
</svg>